<svg width="64" height="64" viewBox="0 0 64 64" fill="none" xmlns="http://www.w3.org/2000/svg">
<g clip-path="url(#clip0_9056_5197)">
<rect width="64" height="64" rx="32" fill="white"/>
<path d="M41.4231 44.7858C41.5409 44.8288 41.6677 44.8405 41.7914 44.82C41.915 44.7995 42.0313 44.7474 42.1288 44.6687C42.2264 44.59 42.302 44.4874 42.3482 44.3709C42.3945 44.2545 42.4098 44.128 42.3928 44.0038C41.7398 39.4095 37.3371 35.8552 31.9999 35.8552C26.6626 35.8552 22.2599 39.4056 21.603 43.9999C21.5865 44.1247 21.6025 44.2517 21.6495 44.3685C21.6964 44.4854 21.7728 44.5881 21.8711 44.6667C21.9694 44.7454 22.0864 44.7973 22.2107 44.8175C22.335 44.8377 22.4624 44.8254 22.5805 44.7819L27.6049 42.9246C30.409 41.8924 33.489 41.8924 36.2931 42.9246L41.4231 44.7858Z" fill="#33234B"/>
<path d="M21.3644 30.8191C22.5478 30.8191 23.5071 29.2033 23.5071 27.2101C23.5071 25.2169 22.5478 23.6011 21.3644 23.6011C20.181 23.6011 19.2217 25.2169 19.2217 27.2101C19.2217 29.2033 20.181 30.8191 21.3644 30.8191Z" fill="#33234B"/>
<path d="M42.7838 30.8191C43.9672 30.8191 44.9265 29.2033 44.9265 27.2101C44.9265 25.2169 43.9672 23.6011 42.7838 23.6011C41.6004 23.6011 40.6411 25.2169 40.6411 27.2101C40.6411 29.2033 41.6004 30.8191 42.7838 30.8191Z" fill="#33234B"/>
<path d="M23.793 24.5709C22.5066 23.5856 19.4606 21.7791 14.5026 21.7674C14.3782 21.7692 14.2552 21.7401 14.1447 21.6828C14.0341 21.6255 13.9395 21.5417 13.8692 21.439C13.6111 21.048 13.3844 20.4028 14.2602 19.8984C15.0692 19.4743 15.9584 19.2256 16.87 19.1683C17.7815 19.111 18.6949 19.2466 19.5505 19.5661C19.5505 19.5661 22.7177 21.1496 23.9924 23.179C24.0474 23.2696 24.087 23.3687 24.1097 23.4722L24.2935 24.2542C24.3063 24.3172 24.2998 24.3826 24.2746 24.4417C24.2494 24.5009 24.2068 24.5509 24.1525 24.5853C24.0982 24.6197 24.0347 24.6367 23.9705 24.6342C23.9063 24.6316 23.8444 24.6095 23.793 24.5709Z" fill="#33234B"/>
<path d="M40.2071 24.5708C41.4935 23.5855 44.5355 21.779 49.4974 21.7673C49.6218 21.7687 49.7447 21.7395 49.8552 21.6822C49.9656 21.6249 50.0603 21.5414 50.1309 21.4389C50.3889 21.0478 50.6157 20.4027 49.7398 19.8983C48.9302 19.4741 48.0403 19.2253 47.1281 19.1681C46.2159 19.1108 45.3019 19.2464 44.4456 19.5659C44.4456 19.5659 41.2824 21.1495 40.0077 23.1788C39.9527 23.2695 39.9131 23.3685 39.8904 23.4721L39.7066 24.2541C39.6937 24.3171 39.7003 24.3825 39.7255 24.4416C39.7507 24.5008 39.7932 24.5508 39.8475 24.5852C39.9019 24.6196 39.9653 24.6366 40.0296 24.634C40.0938 24.6315 40.1557 24.6094 40.2071 24.5708Z" fill="#33234B"/>
</g>
<rect x="0.5" y="0.5" width="63" height="63" rx="31.5" stroke="#33234B"/>
<defs>
<clipPath id="clip0_9056_5197">
<rect width="64" height="64" rx="32" fill="white"/>
</clipPath>
</defs>
</svg>
