<svg width="64" height="64" viewBox="0 0 64 64" fill="none" xmlns="http://www.w3.org/2000/svg">
<g clip-path="url(#clip0_9056_5233)">
<rect width="64" height="64" rx="32" fill="white"/>
<path d="M42.4866 46.6198H21.513C21.3499 46.6291 21.1866 46.605 21.0331 46.549C20.8795 46.493 20.7391 46.4062 20.6203 46.294C20.5015 46.1818 20.4069 46.0466 20.3422 45.8965C20.2775 45.7465 20.2441 45.5848 20.2441 45.4214C20.2441 45.258 20.2775 45.0963 20.3422 44.9462C20.4069 44.7961 20.5015 44.6609 20.6203 44.5487C20.7391 44.4365 20.8795 44.3497 21.0331 44.2937C21.1866 44.2377 21.3499 44.2136 21.513 44.2229H42.4866C42.7926 44.2404 43.0804 44.3743 43.2908 44.5971C43.5013 44.8199 43.6185 45.1149 43.6185 45.4214C43.6185 45.7279 43.5013 46.0227 43.2908 46.2456C43.0804 46.4684 42.7926 46.6023 42.4866 46.6198Z" fill="#33234B"/>
<path d="M24.6121 31.0963C27.7501 27.9584 27.75 22.8708 24.6121 19.7328C21.4742 16.5949 16.3866 16.5949 13.2486 19.7328C10.1107 22.8708 10.1107 27.9583 13.2486 31.0963C16.3866 34.2342 21.4742 34.2342 24.6121 31.0963Z" fill="#33234B"/>
<path d="M21.4713 27.9554C22.8746 26.5521 22.8746 24.277 21.4713 22.8737C20.068 21.4704 17.7928 21.4704 16.3895 22.8737C14.9862 24.277 14.9862 26.5521 16.3895 27.9554C17.7928 29.3587 20.068 29.3587 21.4713 27.9554Z" fill="white"/>
<path d="M48.1447 32.8374C52.2446 31.1391 54.1916 26.4388 52.4933 22.3389C50.7951 18.2389 46.0947 16.292 41.9948 17.9903C37.8949 19.6885 35.948 24.3888 37.6462 28.4887C39.3445 32.5886 44.0448 34.5356 48.1447 32.8374Z" fill="#33234B"/>
<path d="M46.445 28.7338C48.2785 27.9743 49.1492 25.8723 48.3897 24.0388C47.6303 22.2054 45.5283 21.3347 43.6948 22.0941C41.8613 22.8536 40.9907 24.9556 41.7501 26.7891C42.5096 28.6226 44.6115 29.4932 46.445 28.7338Z" fill="white"/>
</g>
<rect x="0.5" y="0.5" width="63" height="63" rx="31.5" stroke="#33234B"/>
<defs>
<clipPath id="clip0_9056_5233">
<rect width="64" height="64" rx="32" fill="white"/>
</clipPath>
</defs>
</svg>
