<svg width="64" height="64" viewBox="0 0 64 64" fill="none" xmlns="http://www.w3.org/2000/svg">
<g clip-path="url(#clip0_9056_5174)">
<rect width="64" height="64" rx="32" fill="white"/>
<path d="M25.8728 30.5493C25.679 30.5499 25.487 30.5123 25.3079 30.4385C25.1287 30.3647 24.9659 30.2561 24.8288 30.1192L17.0087 22.2991C16.7323 22.0222 16.5773 21.6468 16.5776 21.2556C16.578 20.8644 16.7338 20.4894 17.0106 20.213C17.2875 19.9367 17.6629 19.7816 18.0541 19.782C18.4453 19.7823 18.8203 19.9381 19.0967 20.215L26.9168 28.0351C27.1236 28.2413 27.2645 28.5042 27.3217 28.7906C27.3788 29.077 27.3496 29.3739 27.2378 29.6437C27.126 29.9134 26.9365 30.1439 26.6935 30.3058C26.4505 30.4678 26.1648 30.5539 25.8728 30.5532V30.5493Z" fill="#33234B"/>
<path d="M18.0526 30.5493C17.7606 30.55 17.4749 30.4639 17.2319 30.3019C16.9889 30.14 16.7994 29.9095 16.6876 29.6398C16.5757 29.37 16.5465 29.0731 16.6037 28.7867C16.6609 28.5003 16.8018 28.2374 17.0086 28.0312L24.8287 20.2111C24.9656 20.074 25.1281 19.9652 25.307 19.8909C25.4859 19.8166 25.6776 19.7783 25.8713 19.7781C26.065 19.7779 26.2569 19.8159 26.4359 19.8898C26.6149 19.9638 26.7776 20.0723 26.9147 20.2091C27.0518 20.346 27.1606 20.5085 27.2349 20.6874C27.3092 20.8663 27.3476 21.058 27.3478 21.2517C27.3479 21.4454 27.31 21.6373 27.236 21.8163C27.1621 21.9953 27.0535 22.1581 26.9167 22.2952L19.0966 30.1153C18.9598 30.2529 18.7972 30.3622 18.618 30.4367C18.4388 30.5112 18.2466 30.5494 18.0526 30.5493Z" fill="#33234B"/>
<path d="M46.5378 30.5493C46.344 30.5506 46.1518 30.5132 45.9726 30.4394C45.7933 30.3655 45.6306 30.2567 45.4939 30.1192L37.6737 22.2991C37.3974 22.0222 37.2423 21.6468 37.2427 21.2556C37.243 20.8644 37.3988 20.4894 37.6757 20.213C37.9526 19.9367 38.3279 19.7816 38.7191 19.782C39.1103 19.7823 39.4854 19.9381 39.7617 20.215L47.5819 28.0351C47.7192 28.1721 47.8282 28.3348 47.9026 28.5139C47.977 28.6931 48.0152 28.8851 48.0152 29.0791C48.0152 29.2731 47.977 29.4652 47.9026 29.6443C47.8282 29.8235 47.7192 29.9862 47.5819 30.1231C47.445 30.2601 47.2821 30.3683 47.1028 30.4415C46.9236 30.5147 46.7315 30.5513 46.5378 30.5493Z" fill="#33234B"/>
<path d="M38.7135 30.5493C38.5197 30.5502 38.3277 30.5126 38.1485 30.4388C37.9693 30.365 37.8065 30.2563 37.6696 30.1192C37.3931 29.8421 37.2378 29.4667 37.2378 29.0752C37.2378 28.6838 37.3931 28.3083 37.6696 28.0312L45.4897 20.2111C45.7683 19.9458 46.1396 19.7999 46.5243 19.8046C46.909 19.8092 47.2766 19.9642 47.5487 20.2362C47.8207 20.5082 47.9756 20.8759 47.9803 21.2606C47.985 21.6453 47.8391 22.0166 47.5738 22.2952L39.7536 30.1153C39.6175 30.2527 39.4555 30.3617 39.277 30.4362C39.0984 30.5107 38.907 30.5491 38.7135 30.5493Z" fill="#33234B"/>
<path d="M45.5681 44.2188C44.3051 44.2188 42.8545 43.6323 41.2357 42.4593C39.8476 41.4544 38.7294 41.0791 38.2367 41.4544C38.0342 41.6423 37.8579 41.8567 37.7127 42.0918C37.4304 42.5261 37.0912 42.9207 36.7039 43.2648C35.05 44.6646 32.7939 44.2814 31.1986 43.4564C30.6211 43.143 30.0635 42.7944 29.529 42.4124C28.9879 42.0128 28.4091 41.6671 27.8007 41.3801C27.0957 41.0946 26.3287 40.9972 25.5747 41.0972C24.8208 41.1973 24.1057 41.4915 23.4996 41.951C23.3393 42.0761 23.1712 42.2247 22.9953 42.3811C22.46 42.912 21.8318 43.3401 21.1419 43.6441C18.831 44.5629 16.8799 43.1592 15.3159 42.0331C14.44 41.3997 13.615 40.8054 12.8173 40.5942C12.1938 40.4687 11.5459 40.5678 10.9884 40.8741C10.431 41.1804 9.99984 41.6741 9.7714 42.2677C9.71972 42.4606 9.62948 42.641 9.50616 42.7981C9.38284 42.9551 9.22899 43.0855 9.05387 43.1815C8.87874 43.2774 8.68597 43.3369 8.48724 43.3563C8.2885 43.3756 8.08789 43.3546 7.89753 43.2943C7.70716 43.234 7.53101 43.1358 7.37965 43.0055C7.2283 42.8753 7.10491 42.7157 7.01693 42.5364C6.92895 42.3572 6.87819 42.162 6.86775 41.9626C6.8573 41.7631 6.88738 41.5637 6.95614 41.3762C7.40893 40.0557 8.3377 38.9514 9.56105 38.279C10.7844 37.6066 12.2145 37.4144 13.572 37.7399C14.8975 38.0879 16.0353 38.9129 17.0441 39.6362C18.5378 40.7154 19.3237 41.2003 20.0549 40.8992C20.4162 40.7101 20.7459 40.4661 21.0324 40.1758C21.2357 39.996 21.4468 39.8083 21.6814 39.6245C22.7003 38.8399 23.9078 38.3376 25.1825 38.168C26.4571 37.9985 27.754 38.1677 28.9424 38.6587C29.7356 39.0211 30.4902 39.4626 31.1947 39.9764C31.6316 40.2919 32.0873 40.5804 32.5593 40.8405C33.31 41.2316 34.3149 41.4153 34.7919 41.0126C34.9795 40.8226 35.146 40.6128 35.2885 40.387C35.6085 39.8939 36.0044 39.4544 36.4615 39.0849C37.615 38.2091 39.6834 37.6656 42.9796 40.0546C44.4029 41.0869 45.5133 41.474 46.0177 41.1143C46.2165 40.9461 46.3926 40.7529 46.5417 40.5395C46.6785 40.3674 46.8193 40.1915 46.964 40.0273C47.6793 39.2856 48.5775 38.7454 49.568 38.4612C50.5585 38.1771 51.6064 38.1589 52.6062 38.4085C54.7645 38.8855 56.4654 40.3635 57.0402 42.2599C57.0967 42.4453 57.1161 42.6399 57.0974 42.8328C57.0786 43.0257 57.022 43.213 56.9309 43.384C56.8398 43.555 56.7158 43.7064 56.5662 43.8295C56.4166 43.9526 56.2442 44.0451 56.0588 44.1015C55.8734 44.158 55.6787 44.1774 55.4859 44.1587C55.293 44.1399 55.1057 44.0834 54.9347 43.9922C54.7637 43.9011 54.6123 43.7772 54.4892 43.6275C54.3661 43.4779 54.2736 43.3055 54.2171 43.1201C53.8965 42.0683 52.8447 41.4857 51.9688 41.2902C51.093 41.0947 49.8926 41.1807 49.1575 41.9979C49.0519 42.1191 48.9542 42.2443 48.8525 42.3694C48.5335 42.8146 48.15 43.21 47.7147 43.5424C47.0897 43.9912 46.3375 44.2282 45.5681 44.2188Z" fill="#33234B"/>
</g>
<rect x="0.5" y="0.5" width="63" height="63" rx="31.5" stroke="#33234B"/>
<defs>
<clipPath id="clip0_9056_5174">
<rect width="64" height="64" rx="32" fill="white"/>
</clipPath>
</defs>
</svg>
