<svg width="96" height="96" viewBox="0 0 96 96" fill="none" xmlns="http://www.w3.org/2000/svg">
<g clip-path="url(#clip0_9056_5249)">
<path d="M74.6556 96H21.3503C15.6878 96 10.2573 93.7496 6.25336 89.7436C2.24941 85.7377 7.24411e-06 80.3045 7.24411e-06 74.6393V21.3549C-0.0023035 18.5483 0.548221 15.7687 1.62014 13.1751C2.69205 10.5815 4.26435 8.2246 6.24713 6.23921C8.22992 4.25382 10.5843 2.6788 13.1758 1.60422C15.7673 0.529646 18.545 -0.0234312 21.3503 -0.0234302H74.6205C77.4259 -0.0257434 80.2043 0.525293 82.7967 1.59817C85.3891 2.67105 87.7447 4.24473 89.7287 6.22918C91.7128 8.21364 93.2863 10.5699 94.3594 13.1633C95.4324 15.7567 95.984 18.5363 95.9824 21.3431L96.0176 74.6276C96.0192 77.4347 95.4676 80.2146 94.3946 82.8083C93.3216 85.402 91.7482 87.7587 89.7642 89.7436C87.7803 91.7286 85.4248 93.3028 82.8323 94.3763C80.2399 95.4498 77.4613 96.0016 74.6556 96Z" fill="#DEDEDE"/>
<path fill-rule="evenodd" clip-rule="evenodd" d="M74.7825 48C74.7825 47.6687 74.5956 47.4177 74.2219 46.9156C71.3264 43.0252 60.6847 30 47.9999 30C35.3151 30 24.6734 43.0252 21.7778 46.9156C21.4041 47.4177 21.2173 47.6687 21.2173 48C21.2173 48.3313 21.4041 48.5823 21.7778 49.0844C24.6734 52.9748 35.3151 66 47.9999 66C60.6847 66 71.3264 52.9748 74.2219 49.0844C74.5957 48.5823 74.7825 48.3313 74.7825 48ZM47.9999 57C52.9705 57 56.9999 52.9706 56.9999 48C56.9999 43.0294 52.9705 39 47.9999 39C43.0293 39 38.9999 43.0294 38.9999 48C38.9999 52.9706 43.0293 57 47.9999 57Z" fill="#33234B"/>
<circle cx="48" cy="48" r="5" fill="#33234B"/>
</g>
<defs>
<clipPath id="clip0_9056_5249">
<rect width="96" height="96" fill="white"/>
</clipPath>
</defs>
</svg>
