<svg width="64" height="64" viewBox="0 0 64 64" fill="none" xmlns="http://www.w3.org/2000/svg">
<g clip-path="url(#clip0_9056_5103)">
<rect width="64" height="64" rx="32" fill="white"/>
<path d="M18.7721 34.0449C20.206 34.0449 21.3684 32.2575 21.3684 30.0527C21.3684 27.8479 20.206 26.0605 18.7721 26.0605C17.3382 26.0605 16.1758 27.8479 16.1758 30.0527C16.1758 32.2575 17.3382 34.0449 18.7721 34.0449Z" fill="#33234B"/>
<path d="M44.7467 34.0449C46.1806 34.0449 47.343 32.2575 47.343 30.0527C47.343 27.8479 46.1806 26.0605 44.7467 26.0605C43.3128 26.0605 42.1504 27.8479 42.1504 30.0527C42.1504 32.2575 43.3128 34.0449 44.7467 34.0449Z" fill="#33234B"/>
<path d="M6.87014 23.9492C6.99625 24.1259 7.15629 24.2756 7.3409 24.3898C7.52552 24.5039 7.73102 24.5801 7.94541 24.6139C12.5436 25.7049 21.5876 24.3129 22.3266 19.0186C22.4479 18.1545 21.9591 16.0392 20.5945 17.0636C19.1556 18.1232 18.1741 19.5895 16.6844 20.6257C15.2271 21.6625 13.4712 22.1952 11.6834 22.1428C10.487 22.1037 9.1849 21.8613 8.01579 22.1936C6.96789 22.4751 6.48695 23.3158 6.87014 23.9492Z" fill="#33234B"/>
<path d="M57.1457 23.9492C57.0196 24.1259 56.8595 24.2756 56.6749 24.3898C56.4903 24.5039 56.2848 24.5801 56.0704 24.6139C51.4722 25.7049 42.4282 24.3129 41.6892 19.0186C41.568 18.1545 42.0567 16.0392 43.4214 17.0636C44.8603 18.1232 45.8417 19.5895 47.3314 20.6257C48.7887 21.6625 50.5447 22.1952 52.3324 22.1428C53.5289 22.1037 54.827 21.8613 56.0001 22.1936C57.0323 22.4751 57.5132 23.3158 57.1457 23.9492Z" fill="#33234B"/>
<path d="M38.123 45.9551H33.6851V49.7909H38.123V45.9551Z" fill="white"/>
<path d="M19.0929 49.7987H19.6755V45.9629H14.4829C14.6828 47.0398 15.2531 48.0128 16.0951 48.7134C16.9371 49.414 17.9976 49.7979 19.0929 49.7987Z" fill="white"/>
<path d="M44.2739 45.9551H39.8359V49.7909H44.2739V45.9551Z" fill="white"/>
<path d="M19.6755 40.3245H19.0929C17.9849 40.3256 16.913 40.7188 16.0671 41.4344C15.2212 42.1501 14.6559 43.142 14.4712 44.2345H19.6755V40.3245Z" fill="white"/>
<path d="M31.9765 45.9551H27.5386V49.7909H31.9765V45.9551Z" fill="white"/>
<path d="M25.8261 45.9551H21.3882V49.7909H25.8261V45.9551Z" fill="white"/>
<path d="M31.9765 40.3245H27.5386V44.2463H31.9765V40.3245Z" fill="white"/>
<path d="M25.8261 40.3245H21.3882V44.2463H25.8261V40.3245Z" fill="white"/>
<path d="M50.0724 44.2423C49.9044 43.2386 49.4146 42.3167 48.6768 41.6156C47.9391 40.9145 46.9934 40.4724 45.9824 40.3557V44.2423H50.0724Z" fill="white"/>
<path d="M45.9824 49.7596C46.9791 49.6444 47.9125 49.2127 48.6458 48.528C49.3791 47.8432 49.8736 46.9415 50.0567 45.9551H45.9824V49.7596Z" fill="white"/>
<path d="M44.2739 40.3245H39.8359V44.2463H44.2739V40.3245Z" fill="white"/>
<path d="M38.123 40.3245H33.6851V44.2463H38.123V40.3245Z" fill="white"/>
<path d="M45.4465 38.6118H19.0927C17.3947 38.6139 15.7668 39.2893 14.5662 40.49C13.3655 41.6906 12.6901 43.3185 12.688 45.0165V45.1064C12.688 44.994 12.7101 44.8826 12.7532 44.7787C12.7962 44.6749 12.8593 44.5804 12.9388 44.5009C13.0183 44.4214 13.1127 44.3583 13.2166 44.3153C13.3205 44.2723 13.4318 44.2501 13.5443 44.2501H13.603C13.7883 42.9289 14.4439 41.7188 15.4494 40.8418C16.4549 39.9649 17.7429 39.4799 19.0771 39.4759H19.7496C19.8195 39.3285 19.9304 39.2043 20.0691 39.1183C20.2079 39.0323 20.3684 38.9881 20.5316 38.9911C20.6948 38.9881 20.8553 39.0323 20.994 39.1183C21.1327 39.2043 21.2437 39.3285 21.3136 39.4759H25.9275C25.9986 39.3294 26.1098 39.206 26.2482 39.1202C26.3867 39.0343 26.5466 38.9896 26.7095 38.9911C26.8725 38.9891 27.0326 39.0337 27.1712 39.1195C27.3097 39.2054 27.4208 39.3291 27.4915 39.4759H32.1054C32.1753 39.3285 32.2863 39.2043 32.425 39.1183C32.5637 39.0323 32.7242 38.9881 32.8874 38.9911C33.0506 38.9881 33.2111 39.0323 33.3498 39.1183C33.4885 39.2043 33.5995 39.3285 33.6694 39.4759H38.2833C38.3544 39.3294 38.4656 39.206 38.604 39.1202C38.7425 39.0343 38.9024 38.9896 39.0653 38.9911C39.2283 38.9891 39.3885 39.0337 39.527 39.1195C39.6655 39.2054 39.7766 39.3291 39.8473 39.4759H44.4612C44.5311 39.3285 44.6421 39.2043 44.7808 39.1183C44.9195 39.0323 45.0801 38.9881 45.2432 38.9911C45.409 38.9902 45.5714 39.0378 45.7103 39.1282C45.8493 39.2185 45.9588 39.3475 46.0252 39.4994C47.2846 39.6032 48.4706 40.1345 49.3866 41.0049C50.3026 41.8754 50.8936 43.0329 51.0614 44.2853C51.2426 44.3335 51.4029 44.44 51.5174 44.5885C51.6319 44.7369 51.6943 44.919 51.6948 45.1064C51.6933 45.2963 51.6293 45.4804 51.5127 45.6302C51.3961 45.78 51.2333 45.8873 51.0497 45.9354C50.8652 47.1578 50.2775 48.2836 49.3799 49.1337C48.4823 49.9839 47.3263 50.5096 46.0956 50.6274C46.078 50.8404 45.981 51.039 45.8238 51.1839C45.6667 51.3287 45.4609 51.4092 45.2471 51.4095C45.0341 51.4082 44.8292 51.3273 44.6729 51.1825C44.5166 51.0378 44.4202 50.8398 44.4026 50.6274H39.9451C39.9266 50.8394 39.8299 51.037 39.6738 51.1815C39.5177 51.3261 39.3133 51.4073 39.1005 51.4095C38.8871 51.4083 38.6817 51.3275 38.5248 51.1828C38.3678 51.0382 38.2705 50.8401 38.252 50.6274H33.6851C33.6657 50.8398 33.5682 51.0373 33.4114 51.1818C33.2546 51.3263 33.0498 51.4074 32.8366 51.4095C32.6234 51.4074 32.4185 51.3263 32.2618 51.1818C32.105 51.0373 32.0075 50.8398 31.9881 50.6274H27.5345C27.5161 50.8394 27.4194 51.037 27.2632 51.1815C27.1071 51.3261 26.9027 51.4073 26.6899 51.4095C26.4765 51.4083 26.2712 51.3275 26.1142 51.1828C25.9572 51.0382 25.86 50.8401 25.8415 50.6274H21.384C21.3664 50.8398 21.2699 51.0378 21.1136 51.1825C20.9573 51.3273 20.7524 51.4082 20.5394 51.4095C20.326 51.4083 20.1206 51.3275 19.9637 51.1828C19.8067 51.0382 19.7094 50.8401 19.6909 50.6274H19.1005C17.7785 50.6264 16.5004 50.153 15.4967 49.2926C14.4929 48.4323 13.8297 47.2416 13.6264 45.9354H13.5521C13.3283 45.9375 13.1126 45.852 12.9511 45.697C12.7896 45.5421 12.6951 45.3301 12.688 45.1064C12.6901 46.8044 13.3655 48.4323 14.5662 49.6329C15.7668 50.8336 17.3947 51.5091 19.0927 51.5111H45.4465C47.1445 51.5091 48.7724 50.8336 49.9731 49.6329C51.1737 48.4323 51.8492 46.8044 51.8512 45.1064V45.0243C51.8512 43.325 51.1767 41.6951 49.9758 40.4927C48.7749 39.2904 47.1459 38.6139 45.4465 38.6118Z" fill="#33234B"/>
<path d="M44.27 49.7986H39.832V50.5611C39.834 50.5923 39.834 50.6236 39.832 50.6549H44.2895C44.2876 50.6236 44.2876 50.5923 44.2895 50.5611L44.27 49.7986Z" fill="#33234B"/>
<path d="M38.123 49.7986H33.6851V50.5611C33.6851 50.5923 33.6851 50.6236 33.6851 50.6549H38.1386C38.1367 50.6236 38.1367 50.5923 38.1386 50.5611L38.123 49.7986Z" fill="#33234B"/>
<path d="M19.6754 49.7987H19.0927C17.9974 49.7979 16.9369 49.414 16.095 48.7134C15.253 48.0128 14.6827 47.0398 14.4828 45.9629H13.6187C13.8219 47.2692 14.4852 48.4598 15.4889 49.3202C16.4926 50.1805 17.7708 50.6539 19.0927 50.655H19.6832C19.6832 50.6237 19.6832 50.5924 19.6832 50.5611L19.6754 49.7987Z" fill="#33234B"/>
<path d="M25.8261 49.7986H21.3882V50.5611C21.3901 50.5923 21.3901 50.6236 21.3882 50.6549H25.8457C25.8437 50.6236 25.8437 50.5923 25.8457 50.5611L25.8261 49.7986Z" fill="#33234B"/>
<path d="M31.9726 49.7986H27.5347V50.5611C27.5366 50.5923 27.5366 50.6236 27.5347 50.6549H31.9882C31.9882 50.6236 31.9882 50.5923 31.9882 50.5611L31.9726 49.7986Z" fill="#33234B"/>
<path d="M39.8321 40.3246H44.27V39.8397C44.2715 39.7107 44.3023 39.5837 44.36 39.4683H39.7461C39.8026 39.584 39.832 39.711 39.8321 39.8397V40.3246Z" fill="#33234B"/>
<path d="M21.3883 40.3246H25.8262V39.8397C25.8263 39.711 25.8557 39.584 25.9122 39.4683H21.2983C21.356 39.5837 21.3868 39.7107 21.3883 39.8397V40.3246Z" fill="#33234B"/>
<path d="M45.9825 40.3558C46.9935 40.4725 47.9392 40.9146 48.6769 41.6157C49.4146 42.3168 49.9044 43.2387 50.0724 44.2424H50.7176C50.7931 44.2439 50.8681 44.2558 50.9405 44.2776C50.7726 43.0252 50.1817 41.8677 49.2657 40.9972C48.3497 40.1267 47.1637 39.5955 45.9043 39.4917C45.9568 39.6001 45.9836 39.7192 45.9825 39.8397V40.3558Z" fill="#33234B"/>
<path d="M33.6852 40.3246H38.1231V39.8397C38.1232 39.711 38.1526 39.584 38.2091 39.4683H33.5952C33.6529 39.5837 33.6837 39.7107 33.6852 39.8397V40.3246Z" fill="#33234B"/>
<path d="M27.5348 40.3246H31.9727V39.8397C31.9742 39.7107 32.0049 39.5837 32.0626 39.4683H27.4487C27.5052 39.584 27.5346 39.711 27.5348 39.8397V40.3246Z" fill="#33234B"/>
<path d="M19.0927 40.3246H19.6754V39.8397C19.6768 39.7107 19.7076 39.5837 19.7653 39.4683H19.0927C17.7586 39.4723 16.4706 39.9572 15.4651 40.8342C14.4596 41.7111 13.804 42.9212 13.6187 44.2424H14.4867C14.6692 43.1511 15.2316 42.1595 16.0744 41.4426C16.9172 40.7257 17.9863 40.3297 19.0927 40.3246Z" fill="#33234B"/>
<path d="M50.0567 45.9551C49.8736 46.9415 49.3791 47.8433 48.6458 48.528C47.9125 49.2127 46.9791 49.6444 45.9824 49.7596V50.5416C45.9843 50.5638 45.9843 50.586 45.9824 50.6081C47.2131 50.4903 48.3691 49.9645 49.2667 49.1144C50.1643 48.2642 50.752 47.1385 50.9365 45.916C50.8673 45.9328 50.7965 45.942 50.7253 45.9434L50.0567 45.9551Z" fill="#33234B"/>
<path d="M19.6756 49.7986H21.3882V45.9628H25.8261V49.7986H27.5348V45.9628H31.9727V49.7986H33.6853V45.9628H38.1233V49.7986H39.832V45.9628H44.2699V49.7986H45.4429C45.6219 49.7981 45.8008 49.7877 45.9786 49.7673V45.9628H50.0529C50.1061 45.6804 50.1336 45.3938 50.135 45.1065V45.0243C50.1332 44.7623 50.111 44.5009 50.0685 44.2423H45.9786V40.3557C45.8008 40.3353 45.6219 40.3249 45.4429 40.3245H44.2699V44.2345H39.832V40.3245H38.1233V44.2345H33.6853V40.3245H31.9727V44.2345H27.5348V40.3245H25.8261V44.2345H21.3882V40.3245H19.6756V44.2345H14.4713C14.4255 44.4927 14.402 44.7543 14.4009 45.0165V45.1065C14.4023 45.3938 14.4297 45.6804 14.483 45.9628H19.6756V49.7986Z" fill="#33234B"/>
<path d="M44.2817 50.6472C44.2993 50.8595 44.3958 51.0576 44.5521 51.2023C44.7084 51.3471 44.9133 51.428 45.1263 51.4292C45.34 51.429 45.5458 51.3485 45.703 51.2036C45.8601 51.0588 45.9571 50.8602 45.9748 50.6472C45.8027 50.6472 45.6268 50.6746 45.4469 50.6746L44.2817 50.6472Z" fill="#33234B"/>
<path d="M26.6824 38.9834C26.5195 38.9819 26.3596 39.0267 26.2211 39.1125C26.0827 39.1983 25.9715 39.3217 25.9004 39.4683H27.437C27.3684 39.3256 27.2615 39.2047 27.1283 39.1191C26.9951 39.0335 26.8407 38.9866 26.6824 38.9834Z" fill="#33234B"/>
<path d="M20.5315 38.9833C20.3684 38.9803 20.2078 39.0245 20.0691 39.1105C19.9304 39.1965 19.8194 39.3207 19.7495 39.4681H21.2823C21.2146 39.3255 21.1085 39.2045 20.9759 39.1188C20.8433 39.0332 20.6894 38.9863 20.5315 38.9833Z" fill="#33234B"/>
<path d="M32.8289 38.9833C32.6657 38.9803 32.5052 39.0245 32.3665 39.1105C32.2278 39.1965 32.1168 39.3207 32.0469 39.4681H33.5796C33.512 39.3255 33.4059 39.2045 33.2733 39.1188C33.1406 39.0332 32.9867 38.9863 32.8289 38.9833Z" fill="#33234B"/>
<path d="M13.5444 45.955H13.6187C13.5701 45.6722 13.5452 45.3857 13.5444 45.0987V45.0166C13.5457 44.7549 13.5653 44.4936 13.6031 44.2346H13.5444C13.4307 44.2346 13.318 44.2572 13.2131 44.3013C13.1082 44.3453 13.0131 44.4098 12.9333 44.4909C12.8536 44.5721 12.7909 44.6684 12.7488 44.7741C12.7067 44.8798 12.6861 44.9928 12.6881 45.1066C12.6902 45.3323 12.7813 45.5481 12.9417 45.707C13.1021 45.8659 13.3187 45.955 13.5444 45.955Z" fill="#33234B"/>
<path d="M38.9793 38.9834C38.8164 38.9819 38.6564 39.0267 38.518 39.1125C38.3796 39.1983 38.2683 39.3217 38.1973 39.4683H39.7339C39.6653 39.3256 39.5584 39.2047 39.4252 39.1191C39.2919 39.0335 39.1376 38.9866 38.9793 38.9834Z" fill="#33234B"/>
<path d="M20.5316 51.4097C20.7446 51.4085 20.9495 51.3275 21.1058 51.1828C21.2621 51.038 21.3586 50.84 21.3762 50.6277H19.6831C19.7016 50.8403 19.7989 51.0384 19.9558 51.1831C20.1128 51.3277 20.3181 51.4086 20.5316 51.4097Z" fill="#33234B"/>
<path d="M26.6825 51.4097C26.8952 51.4076 27.0996 51.3263 27.2557 51.1818C27.4119 51.0372 27.5086 50.8397 27.527 50.6277H25.834C25.8525 50.8403 25.9498 51.0384 26.1067 51.1831C26.2637 51.3277 26.469 51.4086 26.6825 51.4097Z" fill="#33234B"/>
<path d="M50.9952 45.1065C50.9928 45.384 50.9706 45.6611 50.9287 45.9354C51.1124 45.8873 51.2751 45.7801 51.3917 45.6303C51.5083 45.4804 51.5723 45.2964 51.5739 45.1065C51.5733 44.919 51.5109 44.737 51.3964 44.5885C51.2819 44.4401 51.1216 44.3336 50.9404 44.2854C50.9747 44.5303 50.9929 44.7771 50.9952 45.0244V45.1065Z" fill="#33234B"/>
<path d="M45.9044 39.4916C45.8379 39.3397 45.7284 39.2107 45.5895 39.1204C45.4505 39.03 45.2881 38.9824 45.1223 38.9833C44.9592 38.9803 44.7986 39.0245 44.6599 39.1105C44.5212 39.1965 44.4102 39.3207 44.3403 39.4681H45.4273C45.6033 39.4681 45.7558 39.4799 45.9044 39.4916Z" fill="#33234B"/>
<path d="M38.9793 51.4097C39.1921 51.4076 39.3965 51.3263 39.5526 51.1818C39.7088 51.0372 39.8055 50.8397 39.8239 50.6277H38.1309C38.1494 50.8403 38.2466 51.0384 38.4036 51.1831C38.5606 51.3277 38.7659 51.4086 38.9793 51.4097Z" fill="#33234B"/>
<path d="M32.8289 51.4097C33.0421 51.4077 33.247 51.3265 33.4038 51.182C33.5605 51.0376 33.6581 50.84 33.6774 50.6277H31.9805C31.9998 50.84 32.0974 51.0376 32.2541 51.182C32.4109 51.3265 32.6158 51.4077 32.8289 51.4097Z" fill="#33234B"/>
<path d="M33.6853 49.7986H31.9727V50.5611C31.9727 50.5923 31.9727 50.6236 31.9727 50.6549H33.6853C33.6853 50.6236 33.6853 50.5923 33.6853 50.5611V49.7986Z" fill="#33234B"/>
<path d="M25.8262 40.3246H27.5349V39.8397C27.5347 39.711 27.5053 39.584 27.4488 39.4683H25.9122C25.8557 39.584 25.8263 39.711 25.8262 39.8397V40.3246Z" fill="#33234B"/>
<path d="M38.123 40.3246H39.8317V39.8397C39.8316 39.711 39.8022 39.584 39.7457 39.4683H38.2091C38.1526 39.584 38.1232 39.711 38.123 39.8397V40.3246Z" fill="#33234B"/>
<path d="M31.9727 40.3246H33.6853V39.8397C33.6838 39.7107 33.653 39.5837 33.5953 39.4683H32.0626C32.0049 39.5837 31.9741 39.7107 31.9727 39.8397V40.3246Z" fill="#33234B"/>
<path d="M19.6753 40.3246H21.3879V39.8397C21.3864 39.7107 21.3557 39.5837 21.298 39.4683H19.7652C19.7075 39.5837 19.6768 39.7107 19.6753 39.8397V40.3246Z" fill="#33234B"/>
<path d="M21.3879 49.7986H19.6753V50.5611C19.6753 50.5923 19.6753 50.6236 19.6753 50.6549H21.3683C21.3702 50.6236 21.3702 50.5923 21.3683 50.5611L21.3879 49.7986Z" fill="#33234B"/>
<path d="M13.5444 45.1066C13.5452 45.3936 13.5701 45.68 13.6187 45.9629H14.4829C14.4296 45.6805 14.4021 45.3939 14.4007 45.1066V45.0244C14.4019 44.7622 14.4254 44.5006 14.4711 44.2424H13.6031C13.5653 44.5014 13.5457 44.7627 13.5444 45.0244V45.1066Z" fill="#33234B"/>
<path d="M39.8317 49.7986H38.123V50.5611C38.1211 50.5923 38.1211 50.6236 38.123 50.6549H39.8161C39.818 50.6236 39.818 50.5923 39.8161 50.5611L39.8317 49.7986Z" fill="#33234B"/>
<path d="M27.5349 49.7986H25.8262V50.5611C25.8242 50.5923 25.8242 50.6236 25.8262 50.6549H27.5192C27.5212 50.6236 27.5212 50.5923 27.5192 50.5611L27.5349 49.7986Z" fill="#33234B"/>
<path d="M44.27 40.3246H45.443C45.6221 40.325 45.8009 40.3354 45.9787 40.3558V39.8397C45.9798 39.7192 45.953 39.6001 45.9005 39.4917C45.7519 39.4917 45.5995 39.4683 45.443 39.4683H44.356C44.2983 39.5837 44.2676 39.7107 44.2661 39.8397L44.27 40.3246Z" fill="#33234B"/>
<path d="M45.9826 49.7595C45.8047 49.7799 45.6259 49.7903 45.4469 49.7908H44.2739V50.5533C44.272 50.5845 44.272 50.6158 44.2739 50.6471H45.4469C45.6268 50.6471 45.8027 50.6471 45.9748 50.6197C45.9766 50.5976 45.9766 50.5754 45.9748 50.5533L45.9826 49.7595Z" fill="#33234B"/>
<path d="M50.0723 44.2424C50.1147 44.501 50.1369 44.7624 50.1387 45.0244V45.1066C50.1374 45.3939 50.1099 45.6805 50.0566 45.9629H50.7174C50.7886 45.9615 50.8594 45.9523 50.9286 45.9355C50.9705 45.6611 50.9927 45.3841 50.9951 45.1066V45.0244C50.9928 44.7772 50.9745 44.5304 50.9403 44.2855C50.868 44.2636 50.793 44.2518 50.7174 44.2503L50.0723 44.2424Z" fill="#33234B"/>
</g>
<rect x="0.5" y="0.5" width="63" height="63" rx="31.5" stroke="#33234B"/>
<defs>
<clipPath id="clip0_9056_5103">
<rect width="64" height="64" rx="32" fill="white"/>
</clipPath>
</defs>
</svg>
