<svg width="64" height="64" viewBox="0 0 64 64" fill="none" xmlns="http://www.w3.org/2000/svg">
<rect x="0.5" y="0.5" width="63" height="63" rx="31.5" fill="white"/>
<rect x="0.5" y="0.5" width="63" height="63" rx="31.5" stroke="#33234B"/>
<g clip-path="url(#clip0_9358_77)">
<path d="M11.0259 43.8402L11.0163 41.3275C11.1716 40.6544 11.6452 40.236 12.3331 40.2049C12.8527 40.1814 13.3756 40.176 13.8953 40.2049C14.2467 40.2231 14.3721 40.1407 14.3657 39.7544C14.341 38.1674 14.3657 36.5793 14.3507 34.9912C14.3353 34.5084 14.5051 34.038 14.8253 33.6761C15.5314 32.8585 16.2129 32.0195 16.9083 31.1923C17.0154 31.0639 17.084 30.9782 16.9812 30.7813C16.6265 30.1147 16.7294 29.5357 17.2576 28.9996C17.7173 28.5341 18.2101 28.0974 18.6398 27.6084C19.5527 26.565 20.4763 26.5211 21.4599 27.6384C22.0503 28.3083 22.0717 29.098 21.4395 29.738C20.8577 30.3276 20.2609 30.9065 19.6845 31.494C19.5071 31.6873 19.2781 31.8259 19.0245 31.8936C18.7709 31.9613 18.5032 31.9552 18.253 31.8761C18.0312 31.814 17.9208 31.8429 17.7826 32.012C17.1065 32.8381 16.4197 33.6546 15.7329 34.4733C15.6218 34.5885 15.5583 34.7414 15.555 34.9014C15.5607 36.5822 15.5607 38.2634 15.555 39.9449C15.555 40.1311 15.6054 40.2049 15.8025 40.2039C17.0712 40.1974 18.3409 40.2039 19.6106 40.2039C19.7327 40.2039 19.8163 40.2039 19.857 40.0305C20.0252 39.306 20.2084 38.5837 20.4152 37.8688C21.0667 35.6216 22.5207 34.1523 24.7526 33.4567C25.6719 33.1709 26.6255 33.1988 27.5737 33.2191C27.8427 33.2191 27.9552 33.1656 27.9359 32.8724C27.9134 32.4593 27.9134 32.0452 27.9359 31.6321C27.9477 31.402 27.8588 31.2736 27.6766 31.1452C27.0562 30.7075 26.4444 30.2559 25.839 29.7968C24.3561 28.6753 23.4475 27.2071 23.1979 25.3547C23.1679 25.1332 23.0703 25.0422 22.8646 24.9823C22.4039 24.8485 21.955 24.6848 21.5714 24.3777C20.2588 23.3268 20.2106 21.3406 21.5038 20.4984C21.7642 20.3283 21.7857 20.2052 21.701 19.9345C21.3751 18.9082 21.296 17.8195 21.4702 16.757C21.6444 15.6944 22.067 14.6878 22.7037 13.8189C23.3404 12.95 24.1733 12.2433 25.1347 11.7561C26.0961 11.2689 27.1589 11.015 28.237 11.0149C30.0135 11.0071 31.7904 11.0071 33.5676 11.0149C34.0506 11.0062 34.5284 11.1158 34.9592 11.3343C35.3899 11.5528 35.7605 11.8734 36.0384 12.268C36.2098 12.5003 36.332 12.5666 36.6181 12.4189C37.7892 11.8132 39.0664 12.0337 39.9975 12.9647C40.7915 13.7577 41.1022 14.7251 41.0583 15.8316C41.0047 17.1917 40.9758 18.5529 40.9254 19.912C40.9179 20.126 40.9608 20.233 41.174 20.3336C42.1137 20.7799 42.5669 21.7334 42.3526 22.7607C42.103 23.9378 41.3476 24.6334 40.2097 24.9395C39.9429 25.0112 39.7811 25.1118 39.7436 25.4275C39.5839 26.6638 39.0586 27.8244 38.2349 28.7609C37.6488 29.449 36.9041 29.9488 36.1991 30.502C35.8145 30.807 35.2273 30.9654 35.0623 31.3988C34.8973 31.8322 35.0216 32.3983 35.0194 32.9056C35.0205 32.9187 35.0205 32.932 35.0194 32.9451C34.9873 33.1592 35.0794 33.2234 35.2884 33.217C35.717 33.2041 36.1455 33.2073 36.5741 33.217C37.4301 33.2268 38.2747 33.4137 39.0546 33.7659C39.3932 33.9222 39.5239 34.2486 39.3975 34.56C39.3694 34.6319 39.327 34.6974 39.2728 34.7526C39.2186 34.8077 39.1538 34.8512 39.0823 34.8806C39.0108 34.9101 38.9341 34.9247 38.8568 34.9236C38.7794 34.9226 38.7031 34.9059 38.6324 34.8746C37.5224 34.3641 36.3481 34.408 35.1737 34.4112C34.9723 34.4112 34.8791 34.4658 34.7976 34.6659C34.2094 36.117 32.989 36.9624 31.5104 36.9721C29.9889 36.9817 28.7717 36.1481 28.1502 34.652C28.0763 34.4744 27.9981 34.4059 27.8063 34.4112C27.2995 34.4262 26.7905 34.4027 26.2837 34.4262C24.0411 34.5332 22.2442 35.9415 21.6078 38.0882C21.4449 38.6361 21.2863 39.1862 21.1513 39.7416C21.0163 40.297 20.9585 40.2039 21.5028 40.2039C28.1566 40.2039 34.8101 40.2039 41.4633 40.2039C41.5436 40.2039 41.624 40.1985 41.7033 40.2039C41.8608 40.2156 41.9283 40.1664 41.8769 39.9973C41.4879 38.7474 41.3411 37.4087 40.4722 36.3385C40.4174 36.2787 40.3759 36.208 40.3502 36.131C40.3246 36.0541 40.3154 35.9726 40.3232 35.8919C40.3311 35.8112 40.3559 35.7331 40.3959 35.6625C40.436 35.592 40.4904 35.5306 40.5558 35.4824C40.8333 35.2684 41.1751 35.3123 41.4311 35.629C41.8006 36.0852 42.0947 36.5975 42.3022 37.1465C42.6408 38.0443 42.838 38.9839 43.0812 39.9096C43.1401 40.1375 43.1884 40.2081 43.4241 40.206C44.6391 40.1953 45.8553 40.1932 47.0671 40.206C47.3393 40.206 47.3982 40.1204 47.3971 39.8636C47.3853 38.2359 47.3885 36.6082 47.3971 34.9805C47.4055 34.7941 47.3423 34.6115 47.2203 34.4701C46.5303 33.6568 45.846 32.8364 45.1674 32.0088C45.0484 31.8643 44.9531 31.7948 44.7388 31.859C44.1688 32.0387 43.6673 31.8943 43.2387 31.4619C42.7812 30.9954 42.3376 30.5106 41.8458 30.0804C40.7422 29.1173 40.7743 28.1959 41.893 27.2413C41.9133 27.2242 41.9315 27.2039 41.9519 27.1868C42.2164 26.9345 42.5696 26.7963 42.9352 26.8019C43.3009 26.8075 43.6496 26.9565 43.9063 27.2167C44.5309 27.8192 45.1417 28.4367 45.7492 29.0563C45.9744 29.2681 46.1208 29.5501 46.1644 29.856C46.208 30.1618 46.1462 30.4734 45.9892 30.7396C45.8821 30.929 45.9088 31.0339 46.0396 31.188C46.7307 32.0002 47.3993 32.8328 48.1 33.6375C48.4417 34.0186 48.6215 34.5175 48.6015 35.0287C48.5865 36.6157 48.6015 38.2038 48.5875 39.7919C48.5875 40.1364 48.6947 40.2199 49.0161 40.2028C49.5358 40.1782 50.0576 40.1846 50.5783 40.2028C51.3819 40.2317 51.9637 40.8074 51.9873 41.6004C52.0055 42.2425 52.0055 42.8845 51.9873 43.5266C51.9648 44.3142 51.3819 44.8932 50.5826 44.9392C50.3026 44.9595 50.0215 44.9595 49.7415 44.9392C49.4779 44.9157 49.374 45.0173 49.299 45.2602C48.8243 46.8119 48.2939 48.3465 47.8611 49.9089C47.5653 50.979 46.9867 51.7024 45.9078 52.0031H26.3458C25.9612 51.8426 25.8198 51.6479 25.8562 51.33C25.8782 51.17 25.9528 51.0217 26.0681 50.9085C26.1834 50.7952 26.3331 50.7233 26.4937 50.704C26.7193 50.6756 26.947 50.6671 27.1741 50.6783C33.1572 50.6783 39.1407 50.6783 45.1245 50.6783C46.0106 50.6783 46.2881 50.4814 46.5507 49.6392C46.9671 48.3016 47.3853 46.965 47.8053 45.6294C47.9725 45.1008 47.9554 45.0826 47.3768 45.0826H15.5229C14.9818 45.0826 14.9753 45.0826 15.1446 45.6177C15.5625 46.9403 15.9768 48.2645 16.3876 49.59C16.664 50.4803 16.9297 50.6719 17.863 50.673C19.6523 50.673 21.4421 50.673 23.2321 50.673C23.419 50.6644 23.6062 50.673 23.7915 50.6987C24.1472 50.7639 24.3936 51.0079 24.4343 51.3247C24.4751 51.6414 24.3272 51.8373 23.9447 51.9978H17.0497C16.0211 51.8908 15.4489 51.2487 15.1382 50.3252C15.0104 49.9464 14.8864 49.5668 14.7664 49.1866C14.371 47.9291 13.9885 46.6675 13.5814 45.4143C13.4967 45.1554 13.3606 45.0441 13.0906 45.0569C12.8511 45.0715 12.6108 45.069 12.3717 45.0494C11.6098 44.9777 11.072 44.4897 11.0045 43.8359L11.0259 43.8402ZM17.9905 30.1211C18.124 30.3499 18.3107 30.5433 18.5348 30.685C18.7244 30.8199 18.8477 30.6208 18.9634 30.5042L20.4977 28.9792C20.7185 28.7652 20.7377 28.6143 20.5095 28.3896C20.0295 27.9177 20.0391 27.907 19.5516 28.3949C19.0902 28.8572 18.628 29.321 18.1651 29.7861C18.0891 29.8653 17.9787 29.9338 17.9948 30.1211H17.9905ZM21.8039 22.6066C21.9528 23.1845 22.3396 23.5355 22.8925 23.7238C23.0928 23.7912 23.1443 23.7238 23.1346 23.5291C23.1207 23.1973 23.1346 22.8645 23.1346 22.5317C23.1346 22.2524 23.1153 21.972 23.1346 21.6948C23.1539 21.4177 23.0886 21.3032 22.7736 21.316C22.0203 21.3513 21.6131 21.8661 21.8039 22.6066ZM40.1722 23.6767C40.8247 23.4167 41.204 22.8773 41.1815 22.2074C41.1729 22.0607 41.1314 21.9178 41.06 21.7893C40.9886 21.6607 40.8892 21.5499 40.7692 21.4649C40.6491 21.3799 40.5114 21.323 40.3664 21.2983C40.2213 21.2737 40.0725 21.2819 39.9311 21.3224C39.7961 21.3642 39.8239 21.4509 39.8239 21.5365C39.8239 21.8821 39.8239 22.2278 39.8239 22.5734C39.8239 22.8656 39.8443 23.1599 39.8186 23.4509C39.7843 23.7966 39.9236 23.7837 40.1722 23.6767ZM39.6439 20.1078C39.7961 20.0543 39.7211 19.8992 39.7221 19.7932C39.7307 19.0602 39.7221 18.3271 39.7221 17.5941H39.8539C39.8539 16.9402 39.8475 16.2875 39.8539 15.6336C39.8636 14.9038 39.6396 14.2745 39.1039 13.7641C38.8582 13.5158 38.5396 13.3524 38.1944 13.2975C37.8493 13.2427 37.4956 13.2993 37.1849 13.4591C36.2131 13.9214 35.6987 13.7962 35.0494 12.9454C34.881 12.7115 34.6583 12.5219 34.4004 12.3927C34.1425 12.2635 33.8571 12.1987 33.5687 12.2038C31.7386 12.1985 29.9085 12.1814 28.0795 12.2038C24.2447 12.2573 21.5435 16.2596 22.9203 19.8264C22.9825 19.988 23.0275 20.1271 23.2686 20.126C25.9976 20.1143 28.7127 19.9858 31.3582 19.2378C32.4146 18.953 33.4147 18.4905 34.3155 17.8702C35.6013 16.9659 37.096 17.1746 38.0989 18.3774C38.5178 18.8793 38.9185 19.3962 39.3321 19.9013C39.4178 20.003 39.4768 20.171 39.6439 20.111V20.1078ZM29.2292 34.0816C29.5506 35.2063 30.6221 35.8869 31.82 35.7414C32.8979 35.6098 33.7744 34.6424 33.8108 33.5241C33.8269 33.0457 33.8108 32.561 33.8108 32.0013C32.2561 32.9933 30.7185 33.0126 29.1199 31.9852C29.167 32.7589 29.0406 33.431 29.2292 34.0848V34.0816ZM29.9149 31.0853C30.98 31.677 31.9861 31.6674 33.0533 31.0735C34.3713 30.3424 35.6132 29.482 36.7606 28.5052C37.981 27.4639 38.596 26.1102 38.6132 24.5029C38.626 23.3953 38.6132 22.2888 38.6196 21.1855C38.631 21.027 38.5816 20.8701 38.4814 20.7467C38.0292 20.2041 37.5995 19.6434 37.1452 19.103C36.6095 18.4609 35.7662 18.3122 35.1019 18.7884C33.4797 19.9516 31.6271 20.4867 29.7017 20.842C28.0579 21.1284 26.3933 21.2798 24.7247 21.2946C24.3797 21.301 24.3079 21.4091 24.3261 21.7227C24.354 22.2278 24.3336 22.7361 24.3336 23.3503C24.3604 24.0663 24.2747 24.8924 24.4793 25.71C24.7547 26.8026 25.2883 27.7432 26.1444 28.4677C27.3123 29.4647 28.576 30.344 29.9171 31.0927L29.9149 31.0853ZM44.7559 29.7497C44.247 29.2393 43.7187 28.747 43.2323 28.2162C42.9226 27.8791 42.7523 28.0739 42.5241 28.2933C42.2798 28.5266 42.1447 28.7042 42.4694 28.9996C43.0051 29.4854 43.4948 30.013 44.0059 30.5202C44.0895 30.6026 44.158 30.7129 44.3434 30.7129C44.5834 30.6058 44.772 30.3822 44.9349 30.1468C45.0506 29.9841 44.8652 29.8674 44.7559 29.7572V29.7497ZM12.1627 43.2077C12.1627 43.7064 12.1927 43.7428 12.676 43.7428C13.411 43.7428 14.1449 43.7428 14.88 43.7428H50.183C50.7883 43.7428 50.7883 43.7428 50.7883 43.1446C50.7883 42.6908 50.7798 42.2371 50.7883 41.7844C50.7948 41.5116 50.6812 41.3853 50.4123 41.3992C50.319 41.3992 50.2258 41.3992 50.1315 41.3992H12.826C12.1595 41.3992 12.1595 41.3992 12.1595 42.0509C12.1627 42.434 12.1617 42.8214 12.1627 43.2077Z" fill="#33234B"/>
</g>
<defs>
<clipPath id="clip0_9358_77">
<rect width="41" height="41" fill="white" transform="matrix(-1 0 0 1 52 11)"/>
</clipPath>
</defs>
</svg>
