<svg width="64" height="64" viewBox="0 0 64 64" fill="none" xmlns="http://www.w3.org/2000/svg">
<rect x="0.5" y="0.5" width="63" height="63" rx="31.5" fill="white"/>
<rect x="0.5" y="0.5" width="63" height="63" rx="31.5" stroke="#33234B"/>
<g clip-path="url(#clip0_9358_82)">
<path d="M45.3506 13C45.8796 13.1481 46.4085 13.2222 46.9481 13.4232C48.1354 13.8864 49.1558 14.6963 49.8766 15.7476C50.5973 16.7988 50.985 18.0427 50.9892 19.3174C50.9892 23.8042 50.9892 28.2945 50.9892 32.7883C50.9892 34.4722 50.3205 36.0872 49.1301 37.2779C47.9398 38.4686 46.3252 39.1375 44.6418 39.1375H41.2989C41.2077 39.1304 41.116 39.145 41.0314 39.1799C40.9469 39.2148 40.8718 39.2692 40.8122 39.3386L35.8612 44.3015C35.7408 44.4325 35.5931 44.5354 35.4286 44.603C35.2641 44.6707 35.0868 44.7014 34.9091 44.6931C34.2532 44.6931 33.5973 44.6931 32.9414 44.6931C32.2855 44.6931 31.8835 44.3015 32.0104 43.6349C32.222 42.2169 32.423 40.7989 32.6346 39.4021C32.6346 39.1798 32.55 39.201 32.4125 39.201H29.6302C27.9631 39.2012 26.3628 38.5454 25.1751 37.3752C23.9874 36.205 23.3077 34.6144 23.2827 32.9471C23.2827 28.7883 23.2827 24.6402 23.2827 20.4814C23.2827 20.2486 23.3462 20.1746 23.5684 20.1958C23.9206 20.2192 24.274 20.2192 24.6263 20.1958C24.8696 20.1958 24.9331 20.2592 24.9225 20.5026V32.746C24.9053 33.3877 25.0181 34.0264 25.2544 34.6232C25.4907 35.2201 25.8455 35.7629 26.2973 36.2188C26.7492 36.6747 27.2888 37.0343 27.8834 37.2759C28.478 37.5175 29.1154 37.636 29.7571 37.6243H33.428C34.2003 37.6243 34.4859 37.9841 34.3801 38.746C34.1686 40.1428 33.9782 41.5502 33.7666 42.9788C33.7666 43.1269 33.7665 43.1693 33.9358 43.1799C34.2104 43.2217 34.4911 43.1953 34.7531 43.1031C35.0151 43.0108 35.2503 42.8555 35.4381 42.6508C36.9403 41.074 38.506 39.5608 40.0399 38.0158C40.1578 37.891 40.3007 37.7925 40.4594 37.7269C40.618 37.6612 40.7887 37.6298 40.9603 37.6349C42.3673 37.6349 43.7849 37.7301 45.1919 37.6349C46.3508 37.5267 47.4274 36.989 48.2103 36.1275C48.9932 35.2661 49.4259 34.143 49.4235 32.9788C49.4235 28.4497 49.4235 23.9206 49.4235 19.3915C49.4195 18.7654 49.291 18.1463 49.0454 17.5704C48.7998 16.9945 48.4422 16.4732 47.9932 16.0369C47.5442 15.6006 47.0129 15.258 46.4302 15.0291C45.8476 14.8003 45.2254 14.6896 44.5996 14.7037C41.5951 14.7037 38.5871 14.7037 35.5756 14.7037C35.2582 14.7037 35.1524 14.6296 35.1842 14.3016C35.2159 13.9735 35.1842 13.5079 35.1842 13.1164L45.3506 13Z" fill="#33234B"/>
<path d="M33.5869 13C33.5869 13.4339 33.5869 13.8677 33.5869 14.291C33.5869 14.5238 33.5234 14.5873 33.3012 14.5873C32.0165 14.5851 30.7333 14.6735 29.461 14.8519C26.8056 15.1203 24.2776 16.1244 22.1614 17.7513C20.3295 19.2603 19.1477 21.4161 18.8608 23.7725C18.6968 24.8492 18.6968 25.9445 18.8608 27.0212C18.883 27.1676 18.8758 27.3169 18.8395 27.4605C18.8031 27.6041 18.7384 27.7389 18.6493 27.8571C17.3692 29.7301 16.1103 31.5926 14.8408 33.4656C14.6958 33.6515 14.617 33.8806 14.617 34.1164C14.617 34.3522 14.6958 34.5812 14.8408 34.7671C14.9489 34.9052 15.0895 35.0143 15.2502 35.0845C15.4108 35.1546 15.5865 35.1838 15.7612 35.1693H18.353C19.083 35.1693 19.4109 35.4867 19.284 36.2275C19.0724 37.6305 19.0724 39.0573 19.284 40.4603C19.3313 40.7007 19.3949 40.9376 19.4745 41.1693C19.5664 41.5057 19.7563 41.807 20.0201 42.035C20.2838 42.2631 20.6095 42.4074 20.9555 42.4497C22.4101 42.688 23.8968 42.6449 25.3352 42.3227C25.499 42.2465 25.6832 42.2254 25.86 42.2626C26.0368 42.2999 26.1969 42.3935 26.3161 42.5294C26.4353 42.6653 26.5072 42.8361 26.521 43.0164C26.5349 43.1966 26.49 43.3765 26.3931 43.5291C25.7865 45.3421 25.18 47.1517 24.5735 48.9577C24.436 49.3915 24.436 49.3915 24.9121 49.3915H39.3418C39.8708 49.3915 39.8179 49.4973 39.7438 48.9153C39.4738 46.7536 39.5273 44.5639 39.9026 42.418C39.9026 42.1746 40.019 42.1005 40.2518 42.164C40.4845 42.2275 40.9076 42.3122 41.2355 42.3545C41.5635 42.3968 41.5106 42.4921 41.4682 42.6931C41.1071 44.691 41.0572 46.7328 41.3202 48.746C41.3202 49.1481 41.4471 49.5502 41.5212 49.9524C41.566 50.0775 41.5785 50.212 41.5579 50.3433C41.5372 50.4746 41.4839 50.5986 41.4028 50.704C41.3217 50.8093 41.2155 50.8926 41.0939 50.9462C40.9722 50.9997 40.839 51.0219 40.7066 51.0106H23.3252C23.1955 51.0181 23.0658 50.9927 22.9484 50.9368C22.831 50.8809 22.7297 50.7963 22.6537 50.6907C22.5778 50.5852 22.5296 50.4622 22.5139 50.3331C22.4981 50.204 22.5152 50.0731 22.5635 49.9524C23.1559 48.1217 23.7696 46.3016 24.3726 44.4815L24.4783 44.1428C23.5044 44.2835 22.5171 44.3084 21.5373 44.2169C20.9723 44.1695 20.4149 44.0559 19.8765 43.8783C19.318 43.6539 18.8284 43.2864 18.457 42.8127C18.0856 42.339 17.8454 41.7758 17.7606 41.1798C17.4627 39.739 17.4019 38.2593 17.5808 36.7989H15.7612C15.132 36.8307 14.5125 36.634 14.0168 36.2451C13.5211 35.8562 13.1825 35.3013 13.0635 34.6825C13.0635 34.6825 13.0635 34.6825 13.0635 34.5979V33.7089C13.1233 33.2064 13.321 32.7303 13.6348 32.3333C14.735 30.6966 15.8458 29.0564 16.9672 27.4127C17.1421 27.1714 17.2178 26.8722 17.1787 26.5767C17.0079 24.9491 17.1698 23.3037 17.6548 21.7407C18.1345 20.1339 18.9707 18.6561 20.1009 17.4175C21.2311 16.1789 22.6261 15.2115 24.1821 14.5873C26.0972 13.7732 28.1287 13.266 30.2016 13.0846C30.7088 13.0476 31.2178 13.0476 31.725 13.0846C32.01 13.111 32.2969 13.111 32.5819 13.0846L33.5869 13Z" fill="#33234B"/>
<path d="M31.6084 13.0635C31.6131 13.0536 31.6155 13.0427 31.6155 13.0317C31.6155 13.0207 31.6131 13.0099 31.6084 13H32.5076C32.2154 13.083 31.9093 13.1046 31.6084 13.0635Z" fill="#757575"/>
<path d="M41.4895 25.9313C41.4635 25.2602 41.4883 24.588 41.5636 23.9207C41.6976 23.235 42.0893 22.6269 42.658 22.2214C43.2268 21.8159 43.9293 21.6438 44.6209 21.7408C45.3201 21.8331 45.9585 22.1867 46.4078 22.7304C46.8572 23.2741 47.0843 23.9677 47.0435 24.672C47.0435 24.8413 46.98 24.8836 46.8319 24.8731C46.504 24.8731 46.1866 24.8731 45.8586 24.8731C45.5307 24.8731 45.4248 24.8096 45.4354 24.4604C45.4456 24.2105 45.372 23.9644 45.2264 23.7612C45.0807 23.558 44.8712 23.4092 44.6314 23.3387C44.4053 23.2678 44.1633 23.2651 43.9356 23.331C43.708 23.3968 43.5048 23.5284 43.3514 23.7091C43.1611 23.9409 43.0632 24.2348 43.0763 24.5344C43.0763 25.5397 43.0763 26.5556 43.0763 27.5715C43.066 27.7322 43.0893 27.8934 43.1445 28.0448C43.1997 28.1961 43.2857 28.3343 43.3971 28.4507C43.5085 28.5671 43.6427 28.6591 43.7915 28.7209C43.9402 28.7826 44.1001 28.8128 44.2612 28.8095C44.4227 28.8163 44.5837 28.7884 44.7336 28.7277C44.8834 28.667 45.0185 28.5749 45.1298 28.4576C45.241 28.3403 45.3259 28.2005 45.3786 28.0477C45.4313 27.8948 45.4507 27.7324 45.4354 27.5715C45.4354 27.2857 45.5096 27.2117 45.7846 27.2328C46.1369 27.2563 46.4903 27.2563 46.8425 27.2328C47.0224 27.2328 47.0964 27.2329 47.0964 27.4763C47.1271 27.8537 47.0805 28.2335 46.9594 28.5923C46.8383 28.9511 46.6452 29.2814 46.3921 29.563C46.1389 29.8446 45.831 30.0716 45.4871 30.23C45.1432 30.3884 44.7706 30.4749 44.3921 30.4843C44.0136 30.4937 43.6372 30.4257 43.2859 30.2845C42.9346 30.1433 42.6158 29.9319 42.349 29.6631C42.0822 29.3944 41.8731 29.0741 41.7344 28.7217C41.5957 28.3693 41.5304 27.9924 41.5424 27.6138L41.4895 25.9313Z" fill="#33234B"/>
<path d="M41.5315 32.0052H46.6835C46.9903 32.0052 47.0643 32.0899 47.0432 32.3756C47.022 32.6613 47.0432 33.0423 47.0432 33.3703C47.0432 33.5291 47.0432 33.6031 46.8317 33.5925H46.6518C43.2136 33.5925 39.7754 33.5925 36.3372 33.5925C35.9986 33.5925 35.914 33.4867 35.9352 33.1693C35.9669 32.888 35.9669 32.604 35.9352 32.3227C35.9352 32.0581 35.9987 31.9946 36.2632 31.9946L41.5315 32.0052Z" fill="#33234B"/>
<path d="M32.7722 18.5238H37.9983C38.2628 18.5238 38.3474 18.5873 38.3262 18.8413C38.2998 19.1511 38.2998 19.4627 38.3262 19.7725C38.3262 20.0582 38.2522 20.1111 37.9772 20.1111H29.863C29.0801 20.1111 28.2973 20.1111 27.525 20.1111C27.2923 20.1111 27.2288 20.1111 27.2394 19.8254C27.2628 19.4731 27.2628 19.1196 27.2394 18.7672C27.2394 18.5238 27.3029 18.4709 27.5462 18.4709L32.7722 18.5238Z" fill="#33234B"/>
<path d="M30.1486 33.5819C29.83 33.5032 29.4947 33.5275 29.1906 33.651C28.8866 33.7746 28.6295 33.9911 28.456 34.2698C28.2656 34.5026 28.054 34.8729 27.8001 34.8624C27.5462 34.8518 27.3664 34.492 27.1548 34.2909C26.6893 33.8148 26.6893 33.8147 27.1548 33.3491L28.2127 32.2909C28.3048 32.1898 28.4177 32.11 28.5438 32.057C28.6699 32.004 28.8059 31.9791 28.9426 31.984H30.8997C31.1218 31.984 31.2383 31.984 31.2171 32.2803C31.1854 32.6111 31.1854 32.9442 31.2171 33.2751C31.2171 33.5396 31.1218 33.5925 30.8997 33.5713C30.6775 33.5501 30.4131 33.5819 30.1486 33.5819Z" fill="#33234B"/>
<path d="M44.3775 20.1218C44.0284 20.1218 43.6898 20.1218 43.3196 20.1218C42.9493 20.1218 43.0339 20.1218 43.0445 19.8572C43.0551 19.5927 43.0445 19.1377 43.0445 18.799C43.0445 18.4604 43.1187 18.5451 43.2985 18.5557C43.7111 18.5557 44.1236 18.5557 44.5256 18.5557C44.7141 18.581 44.906 18.5551 45.081 18.4806C45.256 18.4061 45.4077 18.2858 45.5201 18.1324C45.7528 17.8572 46.0384 17.6138 46.2923 17.3387C46.5462 17.0636 46.4933 17.2117 46.6202 17.3387C46.7472 17.4657 47.1492 17.889 47.4348 18.143C47.7205 18.3969 47.53 18.3546 47.4348 18.4604L46.0384 19.8466C45.956 19.9372 45.8542 20.008 45.7407 20.0538C45.6271 20.0996 45.5047 20.1192 45.3825 20.1112L44.3775 20.1218Z" fill="#33234B"/>
<path d="M41.4894 19.3703C41.4894 20.1216 41.4894 20.1216 40.7277 20.1216C39.966 20.1216 39.9131 20.1216 39.9131 19.3068C39.9131 18.4919 39.9131 18.5449 40.6853 18.5449C41.4576 18.5449 41.4894 18.5237 41.4894 19.3703Z" fill="#33234B"/>
<path d="M33.5868 32.0054C34.3485 32.0054 34.3485 32.0054 34.3485 32.7567C34.3485 33.508 34.3484 33.5821 33.5338 33.5821C32.7193 33.5821 32.7722 33.5821 32.7722 32.8202C32.7722 32.0583 32.7934 32.0054 33.5868 32.0054Z" fill="#33234B"/>
<path d="M40.1249 25.9313C40.0297 25.8043 40.0086 25.7302 40.1249 25.5927C40.4223 25.2403 40.611 24.8092 40.6681 24.3517C40.7252 23.8941 40.6481 23.4298 40.4465 23.0152C40.2448 22.6005 39.9272 22.2534 39.5321 22.0159C39.1369 21.7784 38.6813 21.6608 38.2206 21.6773H36.1048C35.4489 21.6773 35.1739 21.9736 35.1633 22.6403V29.508C35.1477 29.6285 35.16 29.7508 35.1992 29.8658C35.2383 29.9807 35.3033 30.0852 35.3891 30.171C35.475 30.2569 35.5794 30.3219 35.6943 30.361C35.8092 30.4002 35.9315 30.4125 36.0519 30.3969H37.8186C38.3407 30.4084 38.8555 30.2727 39.3041 30.0054C39.7527 29.738 40.1171 29.3497 40.3554 28.885C40.5938 28.4202 40.6967 27.8977 40.6522 27.3773C40.6077 26.8568 40.4176 26.3594 40.1038 25.9419L40.1249 25.9313ZM36.9512 23.2646H37.6493C37.9032 23.2646 38.1466 23.2646 38.3899 23.2646C38.5805 23.2869 38.7563 23.3784 38.8839 23.5218C39.0115 23.6652 39.0819 23.8505 39.0819 24.0424C39.0819 24.2344 39.0115 24.4196 38.8839 24.563C38.7563 24.7064 38.5805 24.7979 38.3899 24.8202C37.8822 24.8202 37.3319 24.8202 36.8347 24.8202C36.7289 24.8202 36.6867 24.8202 36.6867 24.672C36.6867 24.2488 36.6867 23.8361 36.6867 23.4128C36.7608 23.2964 36.8243 23.2964 36.9512 23.2964V23.2646ZM37.9138 28.7991H36.9512C36.7819 28.7991 36.7396 28.799 36.7396 28.5874C36.7396 28.2594 36.7396 27.9207 36.7396 27.5927C36.7396 27.2646 36.7396 26.9471 36.7396 26.6297C36.7396 26.3122 36.7396 26.4075 36.9512 26.4181C37.2792 26.4181 37.6176 26.4181 37.9456 26.4181C38.2598 26.4181 38.5612 26.5429 38.7834 26.7652C39.0056 26.9875 39.1304 27.2889 39.1304 27.6033C39.1304 27.9176 39.0056 28.219 38.7834 28.4413C38.5612 28.6636 38.2598 28.7885 37.9456 28.7885L37.9138 28.7991Z" fill="#33234B"/>
<path d="M33.5867 29.529C33.5918 29.4656 33.5918 29.4019 33.5867 29.3385C33.0789 27.0316 32.5288 24.7141 32.0422 22.4073C32.0182 22.2002 31.9138 22.011 31.7515 21.8803C31.5892 21.7496 31.3819 21.688 31.1746 21.7089H29.8417C29.7244 21.6926 29.605 21.7006 29.4909 21.7323C29.3768 21.7639 29.2704 21.8186 29.1783 21.8929C29.0861 21.9673 29.0101 22.0598 28.955 22.1646C28.8999 22.2694 28.8669 22.3844 28.8579 22.5025C28.477 24.2486 28.0749 25.9946 27.7047 27.7935C27.4496 28.5607 27.2932 29.3572 27.2393 30.1639C27.2393 30.3438 27.2392 30.4284 27.4826 30.4178C27.7259 30.4073 28.2231 30.4178 28.5405 30.4178C28.7309 30.4178 28.7837 30.3544 28.7732 30.1851C28.8084 29.5292 28.9185 28.8795 29.1012 28.2485C29.1012 28.0898 29.1964 28.0369 29.3657 28.0369H31.4709C31.5001 28.0324 31.5299 28.0338 31.5586 28.041C31.5872 28.0482 31.6142 28.0611 31.6379 28.0788C31.6615 28.0965 31.6813 28.1188 31.6962 28.1443C31.7112 28.1698 31.7209 28.1981 31.7248 28.2274L32.0422 29.7089C32.0422 29.9417 31.9258 30.2486 32.1162 30.3755C32.3066 30.5025 32.5711 30.3755 32.8039 30.3755C33.6502 30.4285 33.6502 30.4285 33.5867 29.529ZM31.0477 26.4602H30.36C30.1484 26.4602 29.7677 26.5977 29.6301 26.3861C29.4926 26.1745 29.7042 25.8782 29.7677 25.6136C29.9158 24.9258 30.0744 24.238 30.2225 23.4972C30.2225 23.3808 30.2226 23.2644 30.4236 23.2538C30.6246 23.2432 30.6139 23.3702 30.6351 23.4866C30.8361 24.3861 31.0372 25.2856 31.2488 26.185C31.2805 26.439 31.1958 26.4602 31.0265 26.4602H31.0477Z" fill="#33234B"/>
</g>
<defs>
<clipPath id="clip0_9358_82">
<rect width="38" height="38" fill="white" transform="translate(13 13)"/>
</clipPath>
</defs>
</svg>
