<svg width="96" height="96" viewBox="0 0 96 96" fill="none" xmlns="http://www.w3.org/2000/svg">
<g clip-path="url(#clip0_9056_5262)">
<path d="M74.6556 96H21.3503C15.6878 96 10.2573 93.7496 6.25336 89.7436C2.24941 85.7377 7.24411e-06 80.3045 7.24411e-06 74.6393V21.3549C-0.0023035 18.5483 0.548221 15.7687 1.62014 13.1751C2.69205 10.5815 4.26435 8.2246 6.24713 6.23921C8.22992 4.25382 10.5843 2.6788 13.1758 1.60422C15.7673 0.529646 18.545 -0.0234312 21.3503 -0.0234302H74.6205C77.4259 -0.0257434 80.2043 0.525293 82.7967 1.59817C85.3891 2.67105 87.7447 4.24473 89.7287 6.22918C91.7128 8.21364 93.2863 10.5699 94.3594 13.1633C95.4324 15.7567 95.984 18.5363 95.9824 21.3431L96.0176 74.6276C96.0192 77.4347 95.4676 80.2146 94.3946 82.8083C93.3216 85.402 91.7482 87.7587 89.7642 89.7436C87.7803 91.7286 85.4248 93.3028 82.8323 94.3763C80.2399 95.4498 77.4613 96.0016 74.6556 96Z" fill="#DEDEDE"/>
<path d="M44.4458 23.4002C42.1734 24.1738 38.5472 27.51 37.5318 29.8307C34.6792 36.0195 38.3538 43.8521 44.9777 45.786C49.5709 47.0915 53.8256 45.8827 56.92 42.3532C59.0474 39.8874 59.821 37.8567 59.821 34.569C59.7726 29.9274 57.3551 26.0111 53.1971 24.0288C51.0213 22.9651 46.6699 22.675 44.4458 23.4002Z" fill="#33234B"/>
<path d="M34.679 49.8475C29.4089 51.4914 26.4595 55.3593 26.0728 61.3063C25.8794 64.2556 26.0244 65.1742 27.0881 67.3983C28.4902 70.541 30.956 72.6201 33.5669 72.9585C35.0658 73.1519 36.3228 72.7168 40.4809 70.6377C45.3158 68.2686 45.7993 68.1236 50.2958 67.8818C54.5989 67.6884 55.0824 67.5434 55.9527 66.4313C57.4516 64.5941 57.2098 62.3216 55.4209 60.8228C54.1154 59.7108 53.5352 59.5657 49.909 59.5657C45.4125 59.5657 41.3028 60.6294 37.2415 62.9018C35.8393 63.6754 34.5823 64.1106 34.4372 63.9172C33.7603 62.8535 41.5929 59.2756 45.9927 58.5987C50.6343 57.8735 53.922 58.357 56.8714 60.2426C58.1768 61.0645 59.9657 62.1282 60.7877 62.5634C61.6096 63.0469 62.1898 63.6271 61.9964 63.9172C61.8514 64.1589 61.0778 63.9655 60.1591 63.4337C58.2251 62.2249 57.9351 62.2249 58.2251 63.3853C58.6119 64.9325 57.0164 67.6401 55.1308 68.5104L53.3902 69.3323L57.2098 71.2663C61.7063 73.5387 63.737 73.5387 66.4929 71.3146C68.9587 69.284 70.1675 66.6731 70.3609 62.8051C70.6993 57.1482 68.2335 52.7968 63.4469 50.5727C61.1261 49.4607 60.6426 49.4123 48.4586 49.4607C41.5446 49.4607 35.3559 49.6541 34.679 49.8475Z" fill="#33234B"/>
</g>
<defs>
<clipPath id="clip0_9056_5262">
<rect width="96" height="96" fill="white"/>
</clipPath>
</defs>
</svg>
