<svg width="96" height="96" viewBox="0 0 96 96" fill="none" xmlns="http://www.w3.org/2000/svg">
<g clip-path="url(#clip0_9056_5281)">
<path d="M74.6556 96H21.3503C15.6878 96 10.2573 93.7496 6.25336 89.7436C2.24941 85.7377 7.24411e-06 80.3045 7.24411e-06 74.6393V21.3549C-0.0023035 18.5483 0.548221 15.7687 1.62014 13.1751C2.69205 10.5815 4.26435 8.2246 6.24713 6.23921C8.22992 4.25382 10.5843 2.6788 13.1758 1.60422C15.7673 0.529646 18.545 -0.0234312 21.3503 -0.0234302H74.6205C77.4259 -0.0257434 80.2043 0.525293 82.7967 1.59817C85.3891 2.67105 87.7447 4.24473 89.7287 6.22918C91.7128 8.21364 93.2863 10.5699 94.3594 13.1633C95.4324 15.7567 95.984 18.5363 95.9824 21.3431L96.0176 74.6276C96.0192 77.4347 95.4676 80.2146 94.3946 82.8083C93.3216 85.402 91.7482 87.7587 89.7642 89.7436C87.7803 91.7286 85.4248 93.3028 82.8323 94.3763C80.2399 95.4498 77.4613 96.0016 74.6556 96Z" fill="#DEDEDE"/>
<path d="M20.3352 29.2771C20.0871 29.5364 20.0759 29.6153 20.1548 30.3256C20.1999 30.7427 20.2901 31.2726 20.369 31.4868C20.617 32.1971 23.1311 35.8611 23.7287 36.3797C24.2811 36.8645 25.6791 37.7326 27.4716 38.7022L28.3736 39.1982L27.4716 38.0708C25.1492 35.196 23.5934 32.9412 23.1875 31.8701C22.7253 30.6525 22.2856 29.8633 21.8008 29.4237C21.2371 28.9163 20.7298 28.86 20.3352 29.2771Z" fill="#33234B"/>
<path d="M74.2024 29.3351C73.7627 29.7071 73.2328 30.6203 72.7931 31.7815C72.6353 32.1987 72.2407 32.954 71.9137 33.4501C71.1809 34.5775 69.1629 37.2832 68.306 38.2866C67.9565 38.7038 67.7085 39.042 67.7423 39.042C67.8438 39.042 69.6251 38.095 70.5496 37.5425C72.2745 36.5279 72.5338 36.2573 74.1009 33.901C74.9013 32.6947 75.5891 31.5899 75.6229 31.4546C75.7807 30.7781 75.8822 29.7635 75.8258 29.5944C75.5891 28.9179 74.8563 28.8052 74.2024 29.3351Z" fill="#33234B"/>
<path d="M24.333 29.7505C24.1188 29.9647 24.1188 29.9647 24.3217 30.6637C24.4683 31.1372 24.6712 32.7607 24.6938 33.595C24.705 33.8994 25.0771 34.5082 26.2834 36.1091C27.5686 37.834 28.9666 39.2207 29.9024 39.7168L30.6239 40.1001L30.094 39.4237C28.448 37.3943 27.6814 35.9287 27.253 34.0008C27.0839 33.2455 26.802 32.1294 26.6216 31.5206C26.351 30.5735 26.2383 30.3593 25.855 29.9873C25.4829 29.6491 25.3138 29.5702 24.9531 29.5702C24.6938 29.5702 24.4345 29.6491 24.333 29.7505Z" fill="#33234B"/>
<path d="M70.3582 29.7726C70.2003 29.8741 69.9523 30.0996 69.8283 30.2574C69.5915 30.5618 68.9715 32.6137 68.5881 34.395C68.2386 36.0072 67.3593 37.6306 65.9275 39.3217C65.2285 40.1335 65.2961 40.1786 66.3108 39.5698C67.3818 38.9271 69.2984 36.7851 70.6626 34.6994L71.2601 33.7975L71.3277 32.6588C71.3616 32.0387 71.4743 31.2721 71.5645 30.9677C71.7674 30.2912 71.7787 29.8854 71.5983 29.705C71.3954 29.5021 70.7077 29.5471 70.3582 29.7726Z" fill="#33234B"/>
<path d="M17.4278 30.3143C16.7063 30.6751 16.8303 31.1147 18.3185 33.674C18.9385 34.7337 19.7277 36.1542 20.0659 36.8307C20.7311 38.1497 20.7649 38.1836 23.6173 40.9344C25.0491 42.3099 25.6128 43.0089 26.4132 44.4519C27.8563 47.0111 28.3411 47.6199 30.9228 50.0326C32.9183 51.8928 34.0796 53.9785 34.0796 55.6921C34.0796 57.3945 32.7492 62.6482 31.5091 65.8388L31.0581 67H36.1202H41.1822V63.8094C41.1822 59.6606 41.3626 55.4667 41.5881 54.6888C42.3885 51.7913 42.5013 50.6865 42.1292 49.0405C41.6106 46.7293 39.8068 44.1814 37.2701 42.1971C36.7853 41.8138 36.0751 41.1148 35.6805 40.6413C34.9928 39.7958 34.756 39.4688 33.2566 37.1802C32.1066 35.4327 31.2385 34.6435 30.4719 34.6435C29.942 34.6435 29.6038 34.9028 29.4459 35.4214C29.3445 35.7597 29.3445 35.9513 29.4572 36.2895C29.6489 36.8758 30.5959 38.7473 31.7007 40.7315C32.4899 42.1182 32.862 43.0089 33.1438 44.1701C33.1664 44.2941 32.986 44.001 32.7379 43.5162C31.6556 41.4305 30.8214 40.5962 29.1641 39.9423C26.7063 38.9615 24.1922 37.4959 23.2565 36.4925C22.9746 36.1881 22.3884 35.3538 21.96 34.6435C19.7052 30.8554 18.5439 29.7619 17.4278 30.3143Z" fill="#33234B"/>
<path d="M77.4265 30.3481C76.5697 30.754 75.7016 31.825 74.1683 34.3617C72.9846 36.3346 72.5561 36.8081 71.1131 37.7552C70.1322 38.3978 68.0465 39.4463 66.5809 40.0325C65.1491 40.6075 64.2021 41.5996 63.1874 43.55C62.9507 44.0235 62.8379 44.1588 62.883 43.9446C63.0747 43.0201 63.334 42.3662 63.9766 41.2388C66.6147 36.515 66.8966 35.7484 66.254 34.993C65.8706 34.5308 65.3182 34.5195 64.6192 34.9592C63.9653 35.3763 63.4467 36.019 62.0149 38.1948C60.4817 40.5173 59.9405 41.1599 58.768 42.1182C56.7725 43.7191 55.4196 45.2862 54.5966 46.9435C53.4692 49.187 53.3226 51.4306 54.1456 53.8883C54.5515 55.0833 54.6643 56.673 54.777 62.9639L54.8446 67H59.8616C64.5967 67 64.8785 66.9887 64.7996 66.7971C64.0555 65.0158 62.6914 60.4949 62.2066 58.195C61.7556 56.0416 61.7331 55.3877 62.0713 54.3618C62.6463 52.6482 63.83 51.036 65.7466 49.3449C67.2461 48.0258 67.8549 47.2817 68.8583 45.5793C70.6396 42.5579 70.5268 42.7045 72.9846 40.2805C75.2845 38.0145 75.3296 37.9468 75.8933 36.8194C76.2089 36.1993 76.9981 34.7563 77.6633 33.6176C79.0049 31.3177 79.1965 30.754 78.7118 30.4383C78.2608 30.1452 77.9113 30.1226 77.4265 30.3481Z" fill="#33234B"/>
</g>
<defs>
<clipPath id="clip0_9056_5281">
<rect width="96" height="96" fill="white"/>
</clipPath>
</defs>
</svg>
