<svg width="64" height="64" viewBox="0 0 64 64" fill="none" xmlns="http://www.w3.org/2000/svg">
<g clip-path="url(#clip0_9056_5228)">
<rect width="64" height="64" rx="32" fill="white"/>
<path d="M18.1194 30.0294C19.6526 30.0294 20.8956 27.9339 20.8956 25.3491C20.8956 22.7642 19.6526 20.6687 18.1194 20.6687C16.5862 20.6687 15.3433 22.7642 15.3433 25.3491C15.3433 27.9339 16.5862 30.0294 18.1194 30.0294Z" fill="#33234B"/>
<path d="M45.8806 30.0294C47.4139 30.0294 48.6568 27.9339 48.6568 25.3491C48.6568 22.7642 47.4139 20.6687 45.8806 20.6687C44.3474 20.6687 43.1045 22.7642 43.1045 25.3491C43.1045 27.9339 44.3474 30.0294 45.8806 30.0294Z" fill="#33234B"/>
<path d="M41.5325 35.9609C42.1089 35.9613 42.6756 36.109 43.1789 36.39C43.6822 36.671 44.1053 37.0759 44.4081 37.5663C44.7109 38.0567 44.8833 38.6164 44.909 39.1922C44.9348 39.768 44.8129 40.3409 44.555 40.8563C42.4475 45.0988 37.6772 48.0587 32.1327 48.0587C26.5883 48.0587 21.818 45.0988 19.7065 40.8563C19.4498 40.3407 19.3288 39.7682 19.3551 39.1928C19.3813 38.6174 19.5539 38.0582 19.8565 37.5682C20.1591 37.0781 20.5817 36.6733 21.0843 36.392C21.587 36.1108 22.153 35.9624 22.729 35.9609H41.5325Z" fill="#33234B"/>
</g>
<rect x="0.5" y="0.5" width="63" height="63" rx="31.5" stroke="#33234B"/>
<defs>
<clipPath id="clip0_9056_5228">
<rect width="64" height="64" rx="32" fill="white"/>
</clipPath>
</defs>
</svg>
