<svg width="96" height="96" viewBox="0 0 96 96" fill="none" xmlns="http://www.w3.org/2000/svg">
<g clip-path="url(#clip0_9056_5258)">
<path d="M74.6556 96H21.3503C15.6878 96 10.2573 93.7496 6.25336 89.7436C2.24941 85.7377 7.24411e-06 80.3045 7.24411e-06 74.6393V21.3549C-0.0023035 18.5483 0.548221 15.7687 1.62014 13.1751C2.69205 10.5815 4.26435 8.2246 6.24713 6.23921C8.22992 4.25382 10.5843 2.6788 13.1758 1.60422C15.7673 0.529646 18.545 -0.0234312 21.3503 -0.0234302H74.6205C77.4259 -0.0257434 80.2043 0.525293 82.7967 1.59817C85.3891 2.67105 87.7447 4.24473 89.7287 6.22918C91.7128 8.21364 93.2863 10.5699 94.3594 13.1633C95.4324 15.7567 95.984 18.5363 95.9824 21.3431L96.0176 74.6276C96.0192 77.4347 95.4676 80.2146 94.3946 82.8083C93.3216 85.402 91.7482 87.7587 89.7642 89.7436C87.7803 91.7286 85.4248 93.3028 82.8323 94.3763C80.2399 95.4498 77.4613 96.0016 74.6556 96Z" fill="#DEDEDE"/>
<path d="M49.1916 22.0216C47.0071 22.3012 45.4851 22.6428 43.8389 23.264C38.6622 25.2001 34.3448 29.4657 32.357 34.601C31.3838 37.1376 31.0732 38.877 31.0007 42.2522L30.9386 44.7888L28.4745 49.7377C26.7662 53.144 26 54.7902 26 55.0179C26 55.5563 26.4038 56.25 26.88 56.5088C27.2631 56.7262 27.4184 56.747 29.1267 56.747H30.9593L30.9903 61.1161C31.0214 65.3713 31.0318 65.5059 31.2492 65.9822C31.6115 66.7794 32.0878 67.2867 32.7815 67.6284C33.7961 68.1253 34.1481 68.115 37.6683 67.5248C39.3869 67.2349 40.8157 66.9968 40.8468 66.9968C40.8778 66.9968 40.9193 68.5498 40.9296 70.4445L40.9607 73.9025L41.2402 74.2649C41.4162 74.4927 41.7165 74.7101 41.996 74.824L42.4723 75L52.7635 73.2813C63.9038 71.4281 63.469 71.5316 63.8727 70.7965C64.028 70.4963 64.0591 69.9061 64.1005 64.512C64.1626 57.8858 64.1419 58.1032 64.9184 56.4881C65.1359 56.0326 65.7364 55.0801 66.2644 54.376C67.5482 52.6677 68.0659 51.8394 68.7181 50.4831C71.1305 45.4825 71.3479 39.7984 69.3393 34.601C67.3929 29.5486 63.1377 25.2933 58.0852 23.3469C55.7971 22.4668 53.7678 22.0734 51.2623 22.0113C50.3201 21.9906 49.3883 22.0009 49.1916 22.0216Z" fill="#33234B"/>
</g>
<defs>
<clipPath id="clip0_9056_5258">
<rect width="96" height="96" fill="white"/>
</clipPath>
</defs>
</svg>
