<svg width="96" height="96" viewBox="0 0 96 96" fill="none" xmlns="http://www.w3.org/2000/svg">
<g clip-path="url(#clip0_9056_5274)">
<path d="M74.6556 96H21.3503C15.6878 96 10.2573 93.7496 6.25336 89.7436C2.24941 85.7377 7.24411e-06 80.3045 7.24411e-06 74.6393V21.3549C-0.0023035 18.5483 0.548221 15.7687 1.62014 13.1751C2.69205 10.5815 4.26435 8.2246 6.24713 6.23921C8.22992 4.25382 10.5843 2.6788 13.1758 1.60422C15.7673 0.529646 18.545 -0.0234312 21.3503 -0.0234302H74.6205C77.4259 -0.0257434 80.2043 0.525293 82.7967 1.59817C85.3891 2.67105 87.7447 4.24473 89.7287 6.22918C91.7128 8.21364 93.2863 10.5699 94.3594 13.1633C95.4324 15.7567 95.984 18.5363 95.9824 21.3431L96.0176 74.6276C96.0192 77.4347 95.4676 80.2146 94.3946 82.8083C93.3216 85.402 91.7482 87.7587 89.7642 89.7436C87.7803 91.7286 85.4248 93.3028 82.8323 94.3763C80.2399 95.4498 77.4613 96.0016 74.6556 96Z" fill="#DEDEDE"/>
<path d="M45.8081 24.7339C46.0608 25.7447 46.882 28.4613 47.6402 30.7988L49.03 35.0947L46.1239 37.4954C43.1547 40.0224 39.8064 44.2551 35.0682 51.4572C33.2361 54.3001 31.2145 56.3848 28.6243 58.1538C26.5395 59.5436 24.8338 61.2494 24.7074 61.9443C24.5811 62.8287 26.0973 64.5977 30.0774 68.0723L35.5736 73L39.68 72.8105C42.7756 72.6841 43.8496 72.3682 43.8496 71.7365C43.8496 71.2311 42.902 70.5993 41.6385 70.2835C39.0483 69.6517 36.5844 67.1247 36.5844 65.1031C36.5844 62.8919 39.2378 59.67 49.7881 49.0565C56.6742 42.1072 59.3276 39.0116 59.3276 37.9376C59.3276 37.1163 58.8854 34.0839 58.38 31.1778C56.7374 22.0805 57.5587 23.0282 51.1148 23.0282H45.429L45.8081 24.7339ZM32.1621 60.2385C32.1621 60.6176 31.8463 61.0598 31.4672 61.3125C31.0882 61.5021 30.9618 62.3233 31.1513 63.1446C31.5936 64.8504 30.9618 65.6085 29.8247 64.6608C28.8138 63.7764 28.7507 61.4389 29.7615 60.4281C30.6459 59.5436 32.1621 59.4173 32.1621 60.2385Z" fill="#33234B"/>
<path d="M60.6543 28.8403C61.2861 32.0622 61.7915 36.1054 61.7915 37.8112C61.8547 40.5277 61.602 41.0963 59.3277 43.3706C56.3584 46.3399 56.2321 47.3507 57.8746 56.0689C58.8223 61.502 58.8223 62.0074 57.7483 66.3665C57.1165 68.8935 56.8006 71.3574 56.9902 71.926C57.3692 72.8104 58.8223 72.9368 67.4773 72.9368C77.9013 72.9368 79.5438 72.7472 79.5438 71.3574C79.5438 70.4097 75.8165 68.5145 73.9212 68.5145C71.4574 68.5145 68.1722 66.7456 67.5405 65.0398C66.7192 62.8919 66.7192 51.773 67.6037 40.4646L68.2354 31.4305L66.5928 27.2609L64.8871 23.0281H62.1706H59.5172L60.6543 28.8403ZM61.8547 66.9983C61.8547 68.0723 62.2337 68.7672 63.1182 68.9567C64.8871 69.3989 64.6976 70.4097 62.8655 70.4097C60.8439 70.4097 59.7067 68.8935 60.2121 66.9351C60.7175 64.8503 61.8547 64.9135 61.8547 66.9983Z" fill="#33234B"/>
<path d="M25.4653 51.015C25.0862 52.089 26.2234 55.2478 27.0447 55.2478C28.245 55.2478 28.4345 53.9843 27.4237 52.089C26.3497 50.0042 25.9707 49.8147 25.4653 51.015Z" fill="#33234B"/>
<path d="M20.4745 53.9843C19.8428 55.0583 23.0647 58.2802 23.9492 57.3958C24.3914 56.9535 24.0124 56.1954 22.7489 54.9951C21.4853 53.7948 20.7904 53.4789 20.4745 53.9843Z" fill="#33234B"/>
<path d="M17 59.2911C17 60.4914 20.6642 61.9444 21.5486 61.06C21.9909 60.6177 21.6118 60.1123 20.2851 59.4174C17.8845 58.1539 17 58.1539 17 59.2911Z" fill="#33234B"/>
</g>
<defs>
<clipPath id="clip0_9056_5274">
<rect width="96" height="96" fill="white"/>
</clipPath>
</defs>
</svg>
