<svg width="96" height="96" viewBox="0 0 96 96" fill="none" xmlns="http://www.w3.org/2000/svg">
<g clip-path="url(#clip0_9056_5254)">
<path d="M74.6556 96H21.3503C15.6878 96 10.2573 93.7496 6.25336 89.7436C2.24941 85.7377 7.24411e-06 80.3045 7.24411e-06 74.6393V21.3549C-0.0023035 18.5483 0.548221 15.7687 1.62014 13.1751C2.69205 10.5815 4.26435 8.2246 6.24713 6.23921C8.22992 4.25382 10.5843 2.6788 13.1758 1.60422C15.7673 0.529646 18.545 -0.0234312 21.3503 -0.0234302H74.6205C77.4259 -0.0257434 80.2043 0.525293 82.7967 1.59817C85.3891 2.67105 87.7447 4.24473 89.7287 6.22918C91.7128 8.21364 93.2863 10.5699 94.3594 13.1633C95.4324 15.7567 95.984 18.5363 95.9824 21.3431L96.0176 74.6276C96.0192 77.4347 95.4676 80.2146 94.3946 82.8083C93.3216 85.402 91.7482 87.7587 89.7642 89.7436C87.7803 91.7286 85.4248 93.3028 82.8323 94.3763C80.2399 95.4498 77.4613 96.0016 74.6556 96Z" fill="#DEDEDE"/>
<g clip-path="url(#clip1_9056_5254)">
<path d="M77.1701 41.5275C76.4081 41.0033 75.443 41.0194 74.7511 41.6257C74.6105 41.7093 73.9871 42.0358 72.8439 42.0358C71.5546 42.0358 70.0871 41.6287 68.4826 40.8259C67.0675 40.118 65.5929 38.9586 64.0323 37.7313C61.1566 35.4701 58.1826 33.1313 54.8336 33.1313C52.8493 33.1313 51.0111 33.9639 49.3703 35.6061L48.0006 36.9768L46.6309 35.6061C44.9901 33.9639 43.1519 33.1313 41.1677 33.1313C37.819 33.1313 34.8451 35.4699 31.9689 37.7313C30.4079 38.9588 28.9336 40.118 27.5184 40.8261C25.9142 41.6289 24.4467 42.0358 23.1572 42.0358C22.0138 42.0358 21.3899 41.7091 21.2493 41.6255C20.5572 41.0194 19.5924 41.0039 18.8305 41.5279C18.0594 42.0586 17.8093 43.0962 18.1487 43.9685C18.2249 44.1643 20.0657 48.815 24.6594 53.4625C28.901 57.7534 36.3936 62.8687 48.0006 62.8687C59.6077 62.8687 67.1002 57.7536 71.3416 53.4625C75.9354 48.815 77.7764 44.1641 77.8521 43.9683C78.1915 43.096 77.9412 42.058 77.1701 41.5275ZM34.4637 40.9045C36.7996 39.0675 39.2156 37.1681 41.1675 37.1681C41.7334 37.1681 42.619 37.3021 43.7752 38.4594L46.5728 41.2592C46.9513 41.638 47.4651 41.8509 48.0004 41.8509C48.536 41.8509 49.0495 41.638 49.4281 41.2592L52.2257 38.4594C53.382 37.3021 54.2675 37.1681 54.8334 37.1681C56.7853 37.1681 59.201 39.0675 61.5372 40.9045C63.1879 42.2027 64.8948 43.5445 66.6764 44.436C67.0057 44.6006 67.3317 44.7485 67.6566 44.8885C63.4489 46.161 57.1053 47.3317 48.0006 47.3317C38.8964 47.3317 32.5526 46.161 28.3447 44.8885C28.6693 44.7485 28.9954 44.6006 29.3247 44.436C31.1057 43.5447 32.813 42.2027 34.4637 40.9045ZM48.0004 58.8321C39.8627 58.8321 33.0144 56.1099 27.6465 50.7416C26.7772 49.8724 26.0208 49.0006 25.3643 48.1651C29.9511 49.7849 37.1974 51.3683 48.0004 51.3683C58.8035 51.3683 66.0497 49.7849 70.6364 48.1651C69.9798 49.0008 69.2237 49.8726 68.3544 50.7418C62.9865 56.1101 56.1382 58.8321 48.0004 58.8321Z" fill="#33234B"/>
</g>
</g>
<defs>
<clipPath id="clip0_9056_5254">
<rect width="96" height="96" fill="white"/>
</clipPath>
<clipPath id="clip1_9056_5254">
<rect width="60" height="60" fill="white" transform="translate(18 18)"/>
</clipPath>
</defs>
</svg>
