<svg width="64" height="64" viewBox="0 0 64 64" fill="none" xmlns="http://www.w3.org/2000/svg">
<rect x="0.5" y="0.5" width="63" height="63" rx="31.5" fill="white"/>
<rect x="0.5" y="0.5" width="63" height="63" rx="31.5" stroke="#33234B"/>
<g clip-path="url(#clip0_9358_98)">
<path d="M44.5486 12.071C47.982 12.3509 51.1252 15.1328 51.818 18.5121C52.2528 20.4316 51.9554 22.438 50.9803 24.1629C50.0053 25.8878 48.418 27.2156 46.5099 27.9023C45.3107 28.3505 44.0167 28.5111 42.7389 28.3701C42.5678 28.3482 42.3944 28.3901 42.254 28.487C40.9634 29.2695 39.4429 29.623 37.9245 29.4937C37.6994 29.508 37.4751 29.4561 37.2811 29.345C37.0871 29.234 36.9326 29.0688 36.8378 28.8713C36.7645 28.6738 36.7534 28.4598 36.8058 28.2562C36.8582 28.0526 36.9717 27.8684 37.1321 27.7268C37.4227 27.4012 37.7305 27.0903 38.0543 26.7953C38.2318 26.6241 38.2016 26.5322 38.0197 26.3776C37.0762 25.5919 36.3282 24.6112 35.8313 23.5085C35.3343 22.4057 35.1012 21.2091 35.1492 20.0075C35.1958 18.0315 35.9829 16.1387 37.3648 14.6796C38.7466 13.2204 40.6297 12.2937 42.6653 12.071C42.8212 11.9916 43.0073 12.1003 43.1589 12H44.0507C44.2109 12.1003 44.3928 11.9916 44.5486 12.071Z" fill="#33234B"/>
<path d="M21.6196 12.0001C22.1651 12.1171 22.7193 12.1964 23.2475 12.3552C27.6939 13.6835 30.6726 16.5323 32.3871 20.6551C33.3243 22.7406 33.4775 25.0763 32.8201 27.2591C32.6575 27.8089 32.4263 28.3377 32.1317 28.8339C32.0702 28.9322 32.0377 29.0448 32.0377 29.1597C32.0377 29.2745 32.0702 29.3872 32.1317 29.4855C33.0582 31.3847 33.979 33.2894 34.894 35.1998C35.6257 36.7202 34.894 38.1238 33.1621 38.4078C33.1218 38.4058 33.0813 38.4058 33.0409 38.4078C32.7941 38.4872 32.4218 38.3577 32.3006 38.5582C32.1793 38.7587 32.3308 39.0344 32.3611 39.2766C32.4304 39.7946 32.5084 40.3084 32.5733 40.8264C32.6188 40.9815 32.6263 41.1446 32.5955 41.303C32.5647 41.4614 32.4963 41.6108 32.3957 41.7395C32.2951 41.8681 32.1649 41.9726 32.0154 42.0446C31.866 42.1166 31.7013 42.1543 31.5342 42.1547C31.1619 42.2048 30.7895 42.2549 30.4172 42.3176C30.27 42.3426 30.0795 42.3176 30.0578 42.5431C30.0362 42.7687 29.824 43.0152 30.1011 43.2533C30.4994 43.6041 30.8805 43.9759 31.2571 44.3477C31.4362 44.4914 31.5529 44.6947 31.5841 44.9174C31.6154 45.1402 31.559 45.3661 31.426 45.5507C31.2874 45.7846 31.1316 46.0143 30.993 46.2441C30.5913 46.8205 30.4022 47.5105 30.4562 48.2031C30.6294 49.9659 29.5903 51.3151 27.4861 51.6075C26.0488 51.7586 24.5951 51.6653 23.1912 51.3318C21.6897 50.9662 20.1077 51.0582 18.6625 51.5949C18.4504 51.6785 18.2555 51.7954 18.052 51.8957C17.9775 51.9406 17.8942 51.9706 17.8073 51.9838C17.7205 51.997 17.6318 51.9931 17.5465 51.9724C17.4612 51.9518 17.3811 51.9147 17.311 51.8635C17.2409 51.8123 17.1822 51.7479 17.1385 51.6743C17.0933 51.601 17.0646 51.5193 17.0542 51.4346C17.0438 51.3499 17.0519 51.2641 17.078 51.1826C17.1041 51.1011 17.1476 51.0258 17.2058 50.9616C17.2639 50.8973 17.3354 50.8456 17.4156 50.8096C18.203 50.3609 19.079 50.0763 19.9873 49.9742C21.3714 49.8302 22.771 49.9221 24.1221 50.2457C25.3049 50.5261 26.5385 50.5418 27.7286 50.2917C27.9545 50.2621 28.1718 50.1884 28.3671 50.0751C28.5625 49.9617 28.7319 49.8111 28.8648 49.6324C28.9978 49.4536 29.0915 49.2507 29.1403 49.0358C29.1891 48.8209 29.192 48.5987 29.1487 48.3827C29.0666 47.3241 29.3732 46.2713 30.0146 45.4086C30.1791 45.1747 30.1618 45.0452 29.9496 44.8656C29.6249 44.5941 29.3218 44.2933 29.0231 43.9926C28.8538 43.8453 28.7295 43.6561 28.6639 43.4455C28.5982 43.2348 28.5937 43.0109 28.6507 42.7979C28.6984 42.6058 28.7287 42.4137 28.772 42.2257C28.817 41.9221 28.9723 41.6437 29.2102 41.4403C29.448 41.2368 29.753 41.1214 30.0708 41.1146C30.27 41.1146 30.4692 41.0561 30.6683 41.0227C31.2701 40.9224 31.2745 40.9224 31.2009 40.3502C31.1402 39.8447 31.0666 39.3435 30.993 38.8422C30.8328 37.8063 31.3091 37.2591 32.4001 37.2257C32.6834 37.2192 32.9639 37.1698 33.2314 37.0795C33.3682 37.0494 33.4954 36.9877 33.6021 36.8997C33.7087 36.8117 33.7916 36.7 33.8436 36.5743C33.8956 36.4485 33.9151 36.3125 33.9005 36.1778C33.8858 36.0431 33.8375 35.9139 33.7596 35.8013C33.1189 34.4563 32.4607 33.1196 31.8243 31.7787C31.5602 31.2357 31.2831 30.701 31.0493 30.1496C31.0165 30.0266 30.9353 29.9207 30.823 29.8545C30.7106 29.7882 30.576 29.7667 30.4475 29.7946C30.2054 29.8113 29.9623 29.8113 29.7201 29.7946C29.6326 29.8009 29.5446 29.7898 29.4616 29.7621C29.3787 29.7345 29.3025 29.6908 29.2376 29.6337C29.1727 29.5766 29.1206 29.5073 29.0845 29.4301C29.0484 29.3529 29.0289 29.2694 29.0274 29.1847C29.0259 29.0964 29.0435 29.0088 29.0793 28.9275C29.1151 28.8462 29.1682 28.7731 29.2351 28.7128C29.3021 28.6526 29.3813 28.6066 29.4679 28.5778C29.5544 28.549 29.6463 28.538 29.7375 28.5456C29.8583 28.5331 29.9803 28.5331 30.1011 28.5456C30.7246 28.6793 30.967 28.3535 31.2225 27.8481C31.6786 26.8588 31.9276 25.7922 31.9551 24.7098C31.9826 23.6273 31.7881 22.5503 31.3827 21.5406C29.941 17.6601 27.2653 14.9283 23.1566 13.6041C22.5796 13.4206 21.9824 13.3029 21.3771 13.2533C21.0307 13.2198 20.732 13.1446 20.6151 12.7938C20.4982 12.4429 20.7233 12.1881 21.0004 11.9834L21.6196 12.0001Z" fill="#33234B"/>
<path d="M43.1635 12C43.0913 12.0452 43.0099 12.0749 42.9247 12.0872C42.8396 12.0994 42.7527 12.0939 42.6699 12.071C42.6763 12.0477 42.6763 12.0233 42.6699 12H43.1635Z" fill="#646464"/>
<path d="M44.5487 12.071C44.4657 12.0916 44.3793 12.0959 44.2945 12.0838C44.2098 12.0716 44.1283 12.0431 44.0552 12H44.5401C44.536 12.0117 44.5347 12.0242 44.5362 12.0364C44.5377 12.0487 44.5419 12.0605 44.5487 12.071Z" fill="#777777"/>
<path d="M43.2501 43.6875C43.1678 46.0392 42.4881 48.1612 40.7346 49.878C40.4397 50.166 40.1097 50.4184 39.7518 50.6299C39.6818 50.6808 39.6017 50.7175 39.5165 50.7378C39.4313 50.758 39.3428 50.7615 39.2562 50.7478C39.1696 50.7341 39.0868 50.7037 39.0127 50.6583C38.9387 50.6129 38.8749 50.5535 38.8253 50.4837C38.7744 50.4138 38.7392 50.3345 38.7218 50.2508C38.7045 50.1672 38.7054 50.0809 38.7246 49.9976C38.7437 49.9142 38.7807 49.8357 38.8331 49.7669C38.8854 49.6981 38.9521 49.6406 39.0288 49.5981C41.4014 47.9273 42.0595 45.5714 41.8993 42.9147C41.8532 41.5711 41.2825 40.294 40.3017 39.3391C40.2347 39.283 40.181 39.2137 40.1442 39.1359C40.1074 39.0581 40.0883 38.9736 40.0883 38.888C40.0883 38.8025 40.1074 38.7179 40.1442 38.6401C40.181 38.5622 40.2347 38.4929 40.3017 38.4369C40.3657 38.3784 40.4415 38.3334 40.5245 38.3047C40.6074 38.2759 40.6956 38.2641 40.7835 38.27C40.8714 38.2759 40.9571 38.2994 41.0352 38.3389C41.1132 38.3784 41.1819 38.4331 41.2368 38.4995C42.2132 39.4635 42.8535 40.6974 43.0683 42.0292C43.1864 42.5747 43.2473 43.1302 43.2501 43.6875Z" fill="#33234B"/>
<path d="M39.3792 43.8714C39.3868 44.6157 39.2405 45.354 38.9491 46.0432C38.6578 46.7324 38.227 47.3588 37.682 47.8856C37.5067 48.0432 37.3153 48.1832 37.1106 48.3033C36.969 48.3859 36.7998 48.4125 36.6384 48.3774C36.477 48.3424 36.3359 48.2485 36.2447 48.1154C36.1517 47.9835 36.1168 47.8215 36.1477 47.6648C36.1785 47.5082 36.2726 47.3697 36.4092 47.28C38.141 45.9683 38.3445 44.2307 37.9029 42.3217C37.7812 41.8487 37.5299 41.4159 37.1755 41.0686C37.1046 41.0125 37.0468 40.9426 37.0059 40.8634C36.965 40.7842 36.942 40.6976 36.9383 40.6092C36.9346 40.5208 36.9504 40.4327 36.9846 40.3506C37.0187 40.2685 37.0705 40.1943 37.1365 40.1329C37.203 40.0673 37.2839 40.0168 37.3733 39.9853C37.4627 39.9538 37.5582 39.942 37.6529 39.9508C37.7476 39.9597 37.839 39.9888 37.9205 40.0362C38.002 40.0837 38.0714 40.1481 38.1237 40.2248C39.0415 41.2273 39.3663 42.422 39.3792 43.8714Z" fill="#33234B"/>
<path d="M35.7903 43.6333C35.7889 44.045 35.6738 44.4489 35.4569 44.8035C35.2401 45.1581 34.9292 45.4506 34.5564 45.6509C34.4818 45.7013 34.3972 45.7362 34.3078 45.7533C34.2185 45.7703 34.1264 45.7692 34.0376 45.7499C33.9487 45.7306 33.865 45.6937 33.7918 45.6414C33.7186 45.5891 33.6575 45.5226 33.6125 45.4462C33.5696 45.3725 33.5427 45.291 33.5337 45.2069C33.5246 45.1228 33.5336 45.0378 33.56 44.9571C33.5864 44.8764 33.6296 44.8019 33.6871 44.738C33.7445 44.6741 33.8149 44.6223 33.894 44.5857C34.0579 44.5076 34.1991 44.3911 34.3044 44.2469C34.4098 44.1027 34.476 43.9353 34.4971 43.76C34.5181 43.5847 34.4934 43.4072 34.4251 43.2435C34.3568 43.0798 34.2472 42.9352 34.1061 42.823C34.0369 42.7705 33.9796 42.7048 33.9378 42.63C33.8961 42.5552 33.8708 42.4729 33.8635 42.3882C33.8562 42.3036 33.867 42.2183 33.8953 42.1379C33.9237 42.0575 33.9689 41.9835 34.0282 41.9207C34.0891 41.8547 34.1638 41.8019 34.2474 41.7658C34.331 41.7296 34.4215 41.7109 34.5131 41.7109C34.6047 41.7109 34.6952 41.7296 34.7788 41.7658C34.8624 41.8019 34.9371 41.8547 34.998 41.9207C35.2495 42.1348 35.4503 42.3985 35.587 42.694C35.7237 42.9894 35.793 43.3098 35.7903 43.6333Z" fill="#33234B"/>
</g>
<defs>
<clipPath id="clip0_9358_98">
<rect width="35" height="40" fill="white" transform="translate(17 12)"/>
</clipPath>
</defs>
</svg>
