<svg width="64" height="64" viewBox="0 0 64 64" fill="none" xmlns="http://www.w3.org/2000/svg">
<g clip-path="url(#clip0_9056_5181)">
<rect width="64" height="64" rx="32" fill="white"/>
<path d="M20.7175 30.0575C22.5501 29.298 23.4203 27.196 22.6612 25.3626C21.9022 23.5291 19.8012 22.6584 17.9686 23.4179C16.136 24.1773 15.2658 26.2793 16.0248 28.1128C16.7839 29.9463 18.8849 30.817 20.7175 30.0575Z" fill="#33234B"/>
<path d="M45.8738 30.0575C47.7063 29.298 48.5766 27.196 47.8175 25.3626C47.0584 23.5291 44.9575 22.6584 43.1249 23.4178C41.2923 24.1773 40.422 26.2793 41.1811 28.1128C41.9402 29.9463 44.0412 30.8169 45.8738 30.0575Z" fill="#33234B"/>
<path d="M19.9867 40.3133C27.889 37.5763 37.0771 37.7562 44.9637 40.4815C47.8392 41.4495 50.5384 42.8783 52.9559 44.7122C53.7024 45.287 55.0741 46.503 55.9535 45.373C56.4576 44.7278 56.0356 43.6486 55.6877 43.0269C54.8514 41.5216 53.3663 40.4619 52.0102 39.457C50.2175 38.1547 48.2709 37.079 46.2144 36.2547C42.7214 34.8605 39.0261 34.0406 35.2715 33.8265C33.8646 33.7327 32.4498 33.7053 31.0351 33.7483H30.9139C28.8993 33.8163 26.892 34.0267 24.9071 34.3779C21.1186 35.0362 17.4698 36.3346 14.1167 38.2176C13.7532 38.4209 13.3937 38.632 13.0341 38.851C11.8382 39.5822 10.6892 40.3173 10.0014 41.588C9.72696 42.0445 9.63879 42.5892 9.75517 43.109C10.0092 43.9653 10.9276 44.2821 11.7405 44.1061C13.0107 43.8363 14.0346 43.1051 15.1484 42.4834C16.3216 41.8261 17.5371 41.2475 18.7869 40.7513C19.1895 40.5988 19.5881 40.4502 19.9867 40.3133Z" fill="#33234B"/>
<path d="M25.7736 21.4006C25.9059 21.3654 26.0199 21.2812 26.0925 21.165C26.1651 21.0488 26.1908 20.9094 26.1644 20.7749C26.0299 20.0021 25.7443 19.2633 25.3241 18.6009C24.8747 17.8971 15.5537 22.206 14.608 22.6635C12.2066 23.765 9.87667 25.016 7.63188 26.4094C7.51345 26.4893 7.42879 26.6102 7.39418 26.7489C7.35957 26.8876 7.37749 27.0341 7.44446 27.1604C7.51144 27.2866 7.62274 27.3836 7.75692 27.4327C7.89111 27.4817 8.03867 27.4793 8.17121 27.426C10.5161 26.4915 12.861 25.381 15.2293 24.5716C18.6972 23.3699 22.2119 22.3129 25.7736 21.4006Z" fill="#33234B"/>
<path d="M38.6242 20.9884C38.4939 20.9451 38.3848 20.8542 38.3188 20.7338C38.2529 20.6134 38.2349 20.4724 38.2685 20.3393C38.4535 19.5778 38.7868 18.8602 39.2495 18.2279C39.7458 17.5514 48.7619 22.4664 49.6764 22.9825C52.0021 24.2355 54.2471 25.6329 56.3985 27.1663C56.5102 27.2543 56.5857 27.3804 56.6104 27.5205C56.6351 27.6607 56.6073 27.805 56.5323 27.9259C56.4574 28.0469 56.3405 28.136 56.2041 28.1761C56.0677 28.2163 55.9212 28.2048 55.7927 28.1438C53.5025 27.0568 51.2475 25.7977 48.9417 24.828C45.5572 23.4126 42.1181 22.1327 38.6242 20.9884Z" fill="#33234B"/>
</g>
<rect x="0.5" y="0.5" width="63" height="63" rx="31.5" stroke="#33234B"/>
<defs>
<clipPath id="clip0_9056_5181">
<rect width="64" height="64" rx="32" fill="white"/>
</clipPath>
</defs>
</svg>
