<svg width="64" height="64" viewBox="0 0 64 64" fill="none" xmlns="http://www.w3.org/2000/svg">
<g clip-path="url(#clip0_9056_5290)">
<rect width="64" height="64" rx="32" fill="white"/>
<path d="M19.4197 21.4702C21.4033 21.4702 23.0113 19.8614 23.0113 17.8768C23.0113 15.8922 21.4033 14.2834 19.4197 14.2834C17.4361 14.2834 15.8281 15.8922 15.8281 17.8768C15.8281 19.8614 17.4361 21.4702 19.4197 21.4702Z" fill="#33234B"/>
<path d="M44.5804 21.4702C46.564 21.4702 48.172 19.8614 48.172 17.8768C48.172 15.8922 46.564 14.2834 44.5804 14.2834C42.5968 14.2834 40.9888 15.8922 40.9888 17.8768C40.9888 19.8614 42.5968 21.4702 44.5804 21.4702Z" fill="#33234B"/>
<path d="M43.9773 40.2096C45.5401 33.585 41.4393 26.9472 34.8179 25.3836C28.1965 23.82 21.5619 27.9229 19.9991 34.5475C18.4363 41.1721 22.5371 47.81 29.1585 49.3735C35.7799 50.9371 42.4145 46.8343 43.9773 40.2096Z" fill="#33234B"/>
</g>
<rect x="0.5" y="0.5" width="63" height="63" rx="31.5" stroke="#33234B"/>
<defs>
<clipPath id="clip0_9056_5290">
<rect width="64" height="64" rx="32" fill="white"/>
</clipPath>
</defs>
</svg>
