<svg width="64" height="64" viewBox="0 0 64 64" fill="none" xmlns="http://www.w3.org/2000/svg">
<rect x="0.5" y="0.5" width="63" height="63" rx="31.5" fill="white"/>
<rect x="0.5" y="0.5" width="63" height="63" rx="31.5" stroke="#33234B"/>
<g clip-path="url(#clip0_9358_187)">
<path d="M32.6203 14.0723C35.7349 14.5637 38.257 16.7172 39.182 19.6728C39.5217 20.7713 39.5361 20.952 39.5072 27.2607L39.4855 33.1865L39.2904 33.8875C38.3076 37.4574 35.1713 39.8711 31.5002 39.8711C27.8291 39.8711 24.7 37.4646 23.7099 33.8803L23.5148 33.1865V26.9717C23.5148 20.8146 23.5148 20.7496 23.6738 20.1643C24.4976 17.0641 26.8029 14.8383 29.867 14.1734C30.4885 14.0361 32.0277 13.9855 32.6203 14.0723ZM30.4668 16.4137C28.5445 16.7822 26.9041 18.1264 26.1742 19.9258C25.7984 20.8725 25.7912 20.9014 25.7912 26.9789C25.7912 33.3889 25.7695 33.1432 26.3982 34.415C26.9691 35.5641 27.7857 36.3807 28.9347 36.9516C29.8236 37.3924 30.539 37.5586 31.5002 37.5586C32.4613 37.5586 33.1767 37.3924 34.0656 36.9516C35.2435 36.3662 36.0385 35.5568 36.631 34.3428C37.2308 33.1143 37.2092 33.3455 37.2092 26.9139C37.2092 21.465 37.2019 21.2266 37.0646 20.6773C36.7828 19.5789 36.248 18.6756 35.4242 17.8951C34.0728 16.6232 32.2445 16.074 30.4668 16.4137Z" fill="#33234B"/>
<path d="M44.2188 20.8073C44.3488 20.9012 44.5295 21.0675 44.609 21.1759C44.7607 21.3782 44.7607 21.4432 44.7607 25.1216V28.8649L44.5512 29.1323C44.0381 29.8044 43.1348 29.761 42.6506 29.0384L42.4844 28.7927V25.1288V21.4649L42.6506 21.2192C43.0336 20.6555 43.7201 20.4749 44.2188 20.8073Z" fill="#33234B"/>
<path d="M19.9447 20.8073C20.0893 20.8868 20.2771 21.0819 20.3639 21.2264C20.5156 21.4938 20.5156 21.5733 20.5156 25.1432V28.7927L20.3494 29.0384C19.8652 29.761 18.9619 29.8044 18.4488 29.1323L18.2393 28.8649V25.1288V21.3927L18.4416 21.1325C18.55 20.988 18.7379 20.8145 18.8535 20.7567C19.1498 20.605 19.634 20.6266 19.9447 20.8073Z" fill="#33234B"/>
<path d="M49.4219 22.3973C49.552 22.4912 49.7326 22.6574 49.8121 22.7658C49.9566 22.9609 49.9639 23.0549 49.9639 25.1289C49.9639 27.2029 49.9566 27.2969 49.8121 27.492C49.5592 27.8389 49.2195 28.0195 48.8438 28.0195C48.468 28.0195 48.1283 27.8389 47.8754 27.492C47.7309 27.2969 47.7236 27.2029 47.7236 25.1289C47.7236 23.0549 47.7309 22.9609 47.8754 22.7658C48.1283 22.4189 48.468 22.2383 48.8438 22.2383C49.075 22.2383 49.2557 22.2889 49.4219 22.3973Z" fill="#33234B"/>
<path d="M14.7344 22.3973C14.8645 22.4912 15.0451 22.6574 15.1246 22.7658C15.2691 22.9609 15.2764 23.0549 15.2764 25.1289C15.2764 27.2029 15.2691 27.2969 15.1246 27.492C14.8717 27.8389 14.532 28.0195 14.1562 28.0195C13.7805 28.0195 13.4408 27.8389 13.1879 27.492C13.0434 27.2969 13.0361 27.2029 13.0361 25.1289C13.0361 23.0549 13.0434 22.9609 13.1879 22.7658C13.4408 22.4189 13.7805 22.2383 14.1562 22.2383C14.3875 22.2383 14.5682 22.2889 14.7344 22.3973Z" fill="#33234B"/>
<path d="M43.8937 32.8541C44.1972 32.9336 44.3851 33.0637 44.573 33.3311C44.8332 33.7141 44.8332 33.9814 44.5802 35.0004C43.2795 40.2107 39.0591 44.1854 33.8777 45.0814C33.3863 45.1682 32.9093 45.2477 32.8154 45.2621L32.6564 45.291V46.9893V48.6875L36.6238 48.702C40.5045 48.7236 40.5984 48.7236 40.7935 48.8754C41.1765 49.1572 41.2922 49.3885 41.2922 49.8438C41.2922 50.299 41.1765 50.5303 40.7935 50.8121C40.5984 50.9639 40.5767 50.9639 31.5002 50.9639C22.4236 50.9639 22.4019 50.9639 22.2068 50.8121C21.8238 50.5303 21.7082 50.299 21.7082 49.8438C21.7082 49.3885 21.8238 49.1572 22.2068 48.8754C22.4019 48.7236 22.4959 48.7236 26.3765 48.702L30.3439 48.6875V46.9965C30.3439 45.1609 30.3584 45.2188 29.932 45.2188C29.8308 45.2188 29.3466 45.1393 28.8625 45.0381C24.8084 44.2215 21.3324 41.5693 19.4896 37.891C18.9765 36.8721 18.6875 36.0844 18.4129 34.9859C18.1382 33.8658 18.1599 33.6346 18.5502 33.2082C19.0199 32.7096 19.7353 32.7023 20.1978 33.1865C20.3785 33.3816 20.458 33.584 20.6531 34.3789C21.1011 36.2289 21.7804 37.5803 22.9656 39.0256C24.5049 40.8828 26.7451 42.227 29.2093 42.7689C30.0765 42.9568 31.9482 43.0291 32.9021 42.9135C36.4504 42.4654 39.6879 40.2396 41.3211 37.1178C41.8197 36.1639 42.0943 35.434 42.3545 34.3861C42.4773 33.8875 42.6363 33.3889 42.7158 33.2732C42.9543 32.9336 43.4673 32.7529 43.8937 32.8541Z" fill="#33234B"/>
</g>
<defs>
<clipPath id="clip0_9358_187">
<rect width="37" height="37" fill="white" transform="matrix(-1 0 0 1 50 14)"/>
</clipPath>
</defs>
</svg>
