<svg width="96" height="96" viewBox="0 0 96 96" fill="none" xmlns="http://www.w3.org/2000/svg">
<g clip-path="url(#clip0_9056_5428)">
<path d="M74.6556 96H21.3503C15.6878 96 10.2573 93.7496 6.25336 89.7436C2.24941 85.7377 7.24411e-06 80.3045 7.24411e-06 74.6393V21.3549C-0.0023035 18.5483 0.548221 15.7687 1.62014 13.1751C2.69205 10.5815 4.26435 8.2246 6.24713 6.23921C8.22992 4.25382 10.5843 2.6788 13.1758 1.60422C15.7673 0.529646 18.545 -0.0234312 21.3503 -0.0234302H74.6205C77.4259 -0.0257434 80.2043 0.525293 82.7967 1.59817C85.3891 2.67105 87.7447 4.24473 89.7287 6.22918C91.7128 8.21364 93.2863 10.5699 94.3594 13.1633C95.4324 15.7567 95.984 18.5363 95.9824 21.3431L96.0176 74.6276C96.0192 77.4347 95.4676 80.2146 94.3946 82.8083C93.3216 85.402 91.7482 87.7587 89.7642 89.7436C87.7803 91.7286 85.4248 93.3028 82.8323 94.3763C80.2399 95.4498 77.4613 96.0016 74.6556 96Z" fill="#DEDEDE"/>
<g clip-path="url(#clip1_9056_5428)">
<path d="M42.1502 63.3776C45.0711 63.0699 41.6893 57.383 42.1502 53.6932C42.5743 50.3064 45.4586 32.3671 42.4805 24.7716C42.0749 23.7367 40.6345 23 39.5225 23H33.5061C32.3938 23 31.4642 23.9009 31.4642 25.0119C31.4642 28.4844 31.6864 35.8626 33.3379 42.4726C35.5925 51.4917 36.6177 54.1525 33.3379 59.8933C30.0582 65.634 22.0655 68.5019 23.09 70.9613C24.1147 73.4213 31.5805 73.2146 35.4314 70.9613C39.2807 68.7074 39.2297 63.6848 42.1502 63.3776Z" fill="#33234B"/>
<path d="M62.662 60.0278C59.3811 54.2881 60.4077 51.6253 62.662 42.6075C64.3132 35.9981 64.5346 28.6201 64.5352 25.1464C64.5352 24.0354 63.6057 23.1345 62.4939 23.1345H56.4767C55.3665 23.1345 53.9243 23.8713 53.5205 24.9063C50.5422 32.5027 53.426 50.4411 53.8497 53.8283C54.3106 57.5176 50.9295 63.2056 53.8497 63.5123C56.7704 63.8199 56.7186 68.842 60.5692 71.0949C64.4194 73.3489 71.8858 73.5549 72.9099 71.0949C73.9334 68.6365 65.9419 65.7688 62.662 60.0278Z" fill="#33234B"/>
</g>
</g>
<defs>
<clipPath id="clip0_9056_5428">
<rect width="96" height="96" fill="white"/>
</clipPath>
<clipPath id="clip1_9056_5428">
<rect width="50" height="50" fill="white" transform="translate(23 23)"/>
</clipPath>
</defs>
</svg>
