<svg width="64" height="64" viewBox="0 0 64 64" fill="none" xmlns="http://www.w3.org/2000/svg">
<rect x="0.5" y="0.5" width="63" height="63" rx="31.5" fill="white"/>
<rect x="0.5" y="0.5" width="63" height="63" rx="31.5" stroke="#33234B"/>
<path d="M36.1581 12.3486C30.7792 12.8672 25.954 16.1279 23.5897 20.8652C22.9481 22.1396 22.412 23.8535 22.1923 25.3125C22.1044 25.9102 22.1132 25.9893 22.368 26.8066C22.746 28.002 22.8163 29.2676 22.5438 29.8389C22.4472 30.0498 21.5155 31.4121 20.4784 32.8623C19.4325 34.3125 18.5624 35.6045 18.536 35.7363C18.4481 36.1055 18.7118 36.5625 19.0897 36.7119C19.2655 36.7822 19.9423 36.9668 20.5927 37.125L21.7616 37.415L21.7001 38.6191C21.6561 39.4805 21.6737 39.8848 21.744 40.0254C21.7968 40.1221 22.0604 40.3506 22.3241 40.5176C22.5878 40.6846 22.7987 40.8516 22.7987 40.8867C22.7987 40.9307 22.6757 41.124 22.5263 41.335C22.3241 41.6074 22.245 41.8008 22.245 42.0557C22.245 42.46 22.3856 42.6357 22.9745 43.0137L23.3964 43.2861L23.4315 44.5781C23.4667 46.0195 23.5458 46.2744 24.0468 46.6348C24.328 46.8281 24.4071 46.8369 26.578 46.8809L28.8192 46.9248L29.0565 47.5576C29.1884 47.9004 29.4608 48.709 29.6542 49.3594C29.8475 50.0186 30.0673 50.5723 30.1552 50.6338C30.2694 50.7217 32.2294 50.748 39.2343 50.748C47.1708 50.748 48.1815 50.7305 48.3573 50.6074C48.621 50.4229 48.6034 50.1592 48.2782 49.4033C47.5311 47.6543 46.7929 45.4658 46.7929 44.9912C46.7929 44.543 46.9335 44.2969 48.8055 41.6074C50.5106 39.1465 51.2225 37.9688 52.119 36.123C52.8485 34.5938 53.3847 33.0996 53.6483 31.8428C54.3866 28.2393 53.912 24.5654 52.2684 21.2607C49.2802 15.2578 42.8641 11.707 36.1581 12.3486ZM38.9706 13.3945C40.2011 13.5088 41.3876 13.7461 42.4862 14.0977C43.6376 14.4756 45.6151 15.4688 46.6171 16.1807C47.6893 16.9453 49.3065 18.5713 50.0624 19.6348C52.9452 23.7129 53.7011 28.9336 52.0663 33.5654C51.6972 34.6201 50.6161 36.835 49.869 38.0918C49.535 38.6455 48.5858 40.0693 47.7684 41.2559C45.9579 43.8486 45.7382 44.2529 45.7382 44.9648C45.7382 45.6064 46.3007 47.3906 47.2059 49.5879C47.2411 49.6758 45.6063 49.6934 39.0585 49.6758L30.8671 49.6494L30.3661 48.1377C29.5751 45.7383 29.7069 45.8262 26.7802 45.8262C24.7675 45.8262 24.6444 45.8174 24.5565 45.6592C24.5126 45.5625 24.4686 44.9209 24.4686 44.2178C24.4686 42.7764 24.4423 42.7061 23.7304 42.2578L23.3348 42.0117L23.6513 41.5898C23.9764 41.1416 24.0468 40.7373 23.8622 40.3857C23.8095 40.2891 23.5194 40.043 23.2294 39.8408L22.6932 39.4805L22.746 38.7598C22.7811 38.373 22.8251 37.793 22.8514 37.4766C22.9218 36.6328 22.8778 36.5889 21.1903 36.167C20.4257 35.9824 19.7753 35.8066 19.7577 35.7803C19.7138 35.7363 22.7723 31.377 23.203 30.8672C23.3085 30.7354 23.4843 30.3926 23.5897 30.1201C23.8622 29.3906 23.8007 27.9316 23.4579 26.7979C23.1854 25.9189 23.1766 25.708 23.3788 24.6885C23.7128 23.0449 24.4862 21.2168 25.497 19.6787C26.288 18.4922 28.0546 16.7256 29.2587 15.9258C31.3593 14.5283 33.9081 13.623 36.369 13.4033C37.5292 13.2979 37.8456 13.2979 38.9706 13.3945Z" fill="#33234B"/>
<path d="M36.8352 17.9209C35.3323 18.334 34.1018 19.626 33.7942 21.1114C33.6624 21.753 33.6624 28.0811 33.7942 28.7051C34.1194 30.2168 35.3674 31.4912 36.9055 31.8955C39.1467 32.4756 41.5461 30.9815 42.0383 28.7051C42.1877 27.9756 42.1702 21.5684 42.0032 20.9619C41.6077 19.4678 40.342 18.2198 38.8831 17.8858C38.3469 17.7627 37.3538 17.7803 36.8352 17.9209ZM39.0061 20.0567C39.6917 20.4258 40.1135 21.1202 40.1135 21.8672C40.1135 22.2012 40.0784 22.2891 39.885 22.4209C39.6741 22.5528 39.6301 22.5528 39.4192 22.4385C39.1995 22.3155 39.1204 22.1573 39.0237 21.6475C38.9534 21.3223 38.5667 20.9707 38.1448 20.8565C37.4856 20.6807 37.3274 20.5137 37.4241 20.127C37.5383 19.67 38.2239 19.6348 39.0061 20.0567Z" fill="#33234B"/>
<path d="M31.8428 27.4658C31.667 27.6416 31.6582 27.7119 31.7109 28.3096C31.9658 31.1396 34.207 33.5566 36.9316 33.9434L37.3447 34.0049L37.3887 35.2617C37.4238 36.3779 37.4502 36.5361 37.5996 36.6504C37.8193 36.8086 38.0127 36.8086 38.2324 36.6504C38.3818 36.5361 38.4082 36.3779 38.4434 35.2617L38.4873 34.0049L38.9004 33.9434C39.832 33.8115 40.8779 33.3545 41.7568 32.6865C43.04 31.7285 43.9629 30.0146 44.1211 28.3096C44.1738 27.7119 44.165 27.6416 43.9893 27.4658C43.6025 27.0791 43.1016 27.3428 43.1016 27.9229C43.0928 29.1445 42.4951 30.5332 41.5635 31.4561C40.2451 32.7744 38.4346 33.2754 36.6416 32.8184C34.4971 32.2734 32.9766 30.4805 32.7744 28.248C32.7305 27.8613 32.6514 27.5273 32.5723 27.4307C32.3877 27.2285 32.0713 27.2373 31.8428 27.4658Z" fill="#33234B"/>
<path d="M16.1192 38.3555C16.0489 38.3995 15.6446 39.3575 15.2315 40.4825C14.379 42.7589 14.4932 42.6358 14.1241 41.6075C13.8516 40.8692 14.001 40.9044 11.505 40.9044C9.47468 40.9044 9.28132 40.9132 9.14949 41.0626C8.94734 41.2823 8.96492 41.5723 9.17585 41.7833C9.34285 41.9503 9.46589 41.959 11.2325 41.959H13.1134L13.3419 42.5479C13.4649 42.8819 13.6671 43.418 13.7901 43.7608C13.9132 44.0948 14.0802 44.4288 14.1593 44.4815C14.3702 44.6397 14.6602 44.6221 14.8184 44.4376C14.8975 44.3585 15.2579 43.462 15.627 42.4512C15.9962 41.4405 16.3302 40.5528 16.3741 40.4825C16.4268 40.3946 16.5147 40.5528 16.6905 41.0274C16.8223 41.3965 17.0157 41.7657 17.1212 41.8272C17.2618 41.9327 17.71 41.959 19.4239 41.959H21.5596L21.7354 41.7217C21.92 41.4932 21.92 41.2383 21.7266 41.0362C21.6827 40.9835 20.8302 40.9307 19.7052 40.9044L17.7628 40.8604L17.4727 40.0694C17.3057 39.6299 17.1124 39.1114 17.0333 38.9005C16.9542 38.6983 16.8399 38.4698 16.7608 38.3995C16.6202 38.2501 16.3126 38.2325 16.1192 38.3555Z" fill="#33234B"/>
</svg>
