<svg width="64" height="64" viewBox="0 0 64 64" fill="none" xmlns="http://www.w3.org/2000/svg">
<rect x="0.5" y="0.5" width="63" height="63" rx="31.5" fill="white"/>
<rect x="0.5" y="0.5" width="63" height="63" rx="31.5" stroke="#33234B"/>
<g clip-path="url(#clip0_9358_170)">
<path d="M27.3652 11.1313C25.7738 11.4676 24.3875 12.534 23.5918 14.0352C23.3785 14.4617 23.2145 14.6422 22.8535 14.8965C21.8199 15.6102 20.9258 16.9062 20.6387 18.1367C20.4828 18.8258 20.4828 20.3926 20.6387 21.0652C20.7043 21.3523 20.8684 21.8281 21.0078 22.1316C21.2539 22.6648 21.2539 22.6813 21.098 22.8453C20.6961 23.2883 20.5566 23.723 20.5566 24.5352C20.5566 25.1914 20.5895 25.3801 20.7535 25.7164C21.1391 26.4957 21.9922 27.1191 22.8043 27.2176L23.198 27.2586L23.3375 27.9641C23.7395 29.9984 25.0602 31.9016 26.7746 32.9188C27.2504 33.2059 27.3242 33.2715 27.193 33.3289C27.1109 33.3617 26.6598 33.534 26.2004 33.7063C25.1176 34.1246 24.0102 34.7398 23.0586 35.4535C22.6402 35.7652 22.2793 36.0195 22.2465 36.0195C22.2219 36.0195 21.984 35.3141 21.7215 34.4527L21.2539 32.8777L21.7707 32.3363C22.3859 31.6801 22.4844 31.4012 22.4844 30.3266C22.4844 29.2273 22.1809 28.5711 21.5082 28.2266C21.2293 28.0871 21.1883 28.0297 21.1473 27.6934C21.0406 26.9387 20.4664 26.225 19.7855 26.0281C19.6133 25.9707 18.9734 25.9297 18.3746 25.9297C17.4887 25.9297 17.2098 25.9625 16.9473 26.0855C16.5289 26.2742 15.9793 26.8895 15.8562 27.3078C15.7824 27.5457 15.7578 29.375 15.7578 34.0672C15.7578 40.2359 15.766 40.5313 15.9219 41.1465C16.3484 42.8281 17.6691 44.1652 19.4082 44.682C20.0727 44.8789 21.3687 44.8789 22.0332 44.682C23.3211 44.2965 24.3055 43.5254 25.0191 42.3359L25.1914 42.0488V44.7805V47.5039L24.5598 48.759C23.9281 50.0059 23.9199 50.0059 23.9199 50.6621C23.9199 51.2117 23.9609 51.384 24.1414 51.7367C24.3793 52.1961 24.6992 52.4996 25.2242 52.7785L25.5605 52.959H32H38.4395L38.8496 52.7375C39.3336 52.4832 39.6207 52.1879 39.8832 51.6875C40.0391 51.3922 40.0801 51.1953 40.0801 50.6621C40.0801 50.0059 40.0719 50.0059 39.4402 48.759L38.8086 47.5039V44.7887V42.0652L39.1367 42.5738C39.7766 43.5582 40.7609 44.3047 41.8848 44.6492C42.6312 44.8871 43.8699 44.8953 44.5918 44.682C45.9289 44.2801 47.1184 43.3203 47.6926 42.1719C48.2586 41.0234 48.2422 41.2941 48.2422 34.0918C48.2422 29.7441 48.2094 27.5047 48.152 27.2914C48.0453 26.8977 47.4793 26.2824 47.0527 26.0855C46.7902 25.9625 46.5113 25.9297 45.6254 25.9297C45.0266 25.9297 44.3867 25.9707 44.2145 26.0281C43.5336 26.225 42.9594 26.9387 42.8527 27.6934C42.8117 28.0297 42.7707 28.0871 42.4918 28.2266C41.8191 28.5711 41.5156 29.2273 41.5156 30.3266C41.5156 31.4012 41.6141 31.6801 42.2293 32.3363L42.7461 32.8777L42.2785 34.4527C42.016 35.3141 41.7781 36.0195 41.7371 36.0195C41.6961 36.0195 41.491 35.8801 41.2777 35.6996C40.3262 34.9039 38.4641 33.8867 37.2172 33.4684C36.7414 33.3125 36.6676 33.2633 36.7988 33.1977C38.907 31.959 40.2277 30.1707 40.6625 27.9641L40.802 27.2586L41.1957 27.2176C42.0078 27.1191 42.8609 26.4957 43.2465 25.7164C43.4105 25.3801 43.4434 25.1914 43.4434 24.5352C43.4434 23.7148 43.3039 23.2883 42.8855 22.8371L42.7215 22.6566L42.9348 22.1809C43.2875 21.3688 43.4105 20.8355 43.4598 19.8922C43.5418 18.3418 43.2055 17.4313 42.1801 16.4059C41.4828 15.7086 40.925 15.3969 40.0145 15.1836L39.432 15.0441L39.3336 14.5273C38.9973 12.9031 37.6437 11.5086 36.0113 11.123C35.2566 10.9508 28.2184 10.9508 27.3652 11.1313ZM36.4133 12.7145C37.2254 13.1574 37.9227 14.0762 38.0047 14.8145L38.0293 15.0605L36.7004 15.0852L35.3633 15.1016V15.7578V16.4059L37.5617 16.4305C39.6535 16.4551 39.7766 16.4633 40.2441 16.652C41.2531 17.0539 42.0078 18.0793 42.1391 19.2277C42.2211 19.925 41.9422 21.3031 41.6141 21.8117C41.5074 21.9758 40.6953 21.8527 40.6953 21.6723C40.6953 21.2047 39.8504 20.048 39.2187 19.6543C38.4969 19.2113 38.3246 19.1785 36.0195 19.1129C33.0172 19.0309 31.3027 18.8094 28.973 18.2023C28.2676 18.0137 27.4637 17.8496 27.1848 17.8332C26.225 17.7676 25.1996 18.1941 24.4039 18.9898C23.6984 19.6953 23.2227 20.7207 23.2227 21.5164C23.2227 21.7133 23.1816 21.8281 23.1242 21.8281C23.0668 21.8281 22.8781 21.8527 22.7141 21.8773C22.427 21.9266 22.4105 21.9184 22.2383 21.582C21.8855 20.8848 21.7379 19.6297 21.902 18.7438C22.1316 17.5379 22.7387 16.6191 23.7477 15.9465C24.3629 15.5363 24.4039 15.4871 24.7402 14.798C25.2898 13.666 26.1348 12.9359 27.3242 12.5504C27.7344 12.4109 28.1199 12.4027 31.8359 12.4191L35.8965 12.4355L36.4133 12.7145ZM28.3332 19.4492C31.1059 20.1629 33.8867 20.5074 37.0695 20.5156C37.5945 20.5156 38.0129 20.5566 38.1852 20.6305C38.5625 20.7863 39.0383 21.2211 39.2434 21.6148C39.4156 21.943 39.4238 22.025 39.4238 24.7402C39.4238 27.4063 39.4156 27.5539 39.2352 28.1855C38.6363 30.2445 37.0941 31.8031 34.9941 32.4594C34.5594 32.5988 34.2148 32.6152 32 32.6152C29.7934 32.6152 29.4406 32.5988 29.0059 32.4594C26.9141 31.8195 25.3637 30.2527 24.7648 28.1855C24.5844 27.5539 24.5762 27.4227 24.5762 24.3711V21.2129L24.7895 20.7617C25.1668 19.966 25.6918 19.4984 26.5285 19.2441C27.0043 19.0883 26.9469 19.0883 28.3332 19.4492ZM23.2227 24.527C23.2227 25.2488 23.1898 25.8559 23.1488 25.8805C23.0176 25.9625 22.5336 25.7492 22.2547 25.4867C21.7871 25.0438 21.7133 24.4039 22.0742 23.8133C22.2711 23.4934 22.6895 23.2227 23.0012 23.2227H23.2227V24.527ZM41.4992 23.3867C42.1883 23.8133 42.3687 24.7648 41.8602 25.3719C41.6305 25.6426 40.9906 25.9707 40.8594 25.8887C40.8102 25.8559 40.7773 25.3063 40.7773 24.527V23.2227H41.007C41.1301 23.2227 41.3516 23.2965 41.4992 23.3867ZM19.441 27.3652C19.7527 27.5211 19.7773 27.6113 19.7773 28.5219V29.293H20.1875C20.9586 29.293 21.1719 29.5309 21.1719 30.3676C21.1719 30.9582 21.1062 31.0977 20.6141 31.6063L20.2367 32H18.6453H17.0621L17.0867 29.818L17.1113 27.6359L17.341 27.4391C17.5543 27.2586 17.6445 27.2422 18.391 27.2422C18.9488 27.2422 19.2852 27.2832 19.441 27.3652ZM46.659 27.4391L46.8887 27.6359L46.9133 29.818L46.9379 32H45.3547H43.7633L43.3859 31.6063C42.8937 31.0977 42.8281 30.9582 42.8281 30.3676C42.8281 29.5309 43.0414 29.293 43.8125 29.293H44.2227V28.5055C44.2227 27.316 44.2883 27.2586 45.5926 27.2504C46.3637 27.2422 46.4457 27.2586 46.659 27.4391ZM20.9176 36.4871C21.4262 38.1934 21.8527 39.5961 21.8691 39.6125C21.8937 39.6371 23.075 39.309 23.1242 39.2598C23.1406 39.2434 23.0586 38.907 22.9355 38.5051C22.8207 38.1113 22.7059 37.7258 22.6812 37.652C22.6156 37.4059 24.5105 35.9867 25.7246 35.3797C26.143 35.1746 27.7344 34.543 27.841 34.543C27.8656 34.543 28.1117 35.4863 28.3988 36.6348L28.9238 38.7266L29.6293 38.0211L30.343 37.3074L30.4824 37.7504L30.6137 38.1934L29.9246 41.2695L29.2355 44.3457L30.5973 46.1668C31.3437 47.1676 31.9754 47.9879 32 47.9879C32.0246 47.9879 32.6562 47.1676 33.4027 46.1668L34.7645 44.3457L34.0754 41.2695L33.3863 38.1934L33.5176 37.7504L33.657 37.3074L34.3707 38.0211L35.0762 38.7266L35.6012 36.6348C36.0934 34.6414 36.1262 34.543 36.2984 34.5922C37.25 34.8711 38.743 35.593 39.6699 36.2082C40.4164 36.7086 41.3598 37.5125 41.327 37.6109C41.2121 37.9063 40.8512 39.2352 40.8758 39.2516C40.9332 39.3008 42.1062 39.6371 42.1309 39.6125C42.1473 39.5961 42.5738 38.1934 43.0824 36.4871L44.0094 33.3945H45.4695H46.9297V36.7332C46.9297 40.3918 46.8805 40.8348 46.4703 41.6059C46.1176 42.2457 45.5105 42.8117 44.8051 43.148C44.2062 43.4352 44.1488 43.4434 43.2711 43.4434C42.3934 43.4434 42.3523 43.4352 41.7535 43.1398C40.8922 42.7133 40.4656 42.2293 39.5633 40.6461L38.8086 39.3254V38.3656V37.4141H38.1113H37.4059L37.4305 42.6148L37.4551 47.8074L38.1031 49.1117C38.784 50.4898 38.866 50.8262 38.6035 51.2199C38.5379 51.3266 38.382 51.4578 38.2672 51.507C38.1195 51.5809 36.4051 51.6055 31.9918 51.6055C25.4539 51.6055 25.5934 51.6137 25.3801 51.1789C25.1422 50.7031 25.1586 50.6457 25.8641 49.202L26.5449 47.7992L26.5695 42.6066L26.5941 37.4141H25.8887H25.1914V38.3656V39.3254L24.4367 40.6461C23.5344 42.2211 23.1078 42.7133 22.2711 43.1316C21.7461 43.3859 21.5738 43.427 20.9094 43.4598C20.0727 43.509 19.4246 43.3531 18.8094 42.9594C18.3582 42.6805 17.784 42.0652 17.5297 41.5977C17.1195 40.8348 17.0703 40.3836 17.0703 36.7332V33.3945H18.5305H19.9906L20.9176 36.4871ZM30.7285 35.0352C30.1871 35.5766 29.7195 36.0195 29.6949 36.0195C29.6375 36.0195 29.1863 34.2969 29.2273 34.2477C29.293 34.182 30.3758 34.0672 31.0156 34.059L31.7129 34.0508L30.7285 35.0352ZM34.1082 34.141C34.4609 34.1902 34.7562 34.2395 34.7727 34.2559C34.8137 34.2969 34.3625 36.0195 34.3051 36.0195C34.2805 36.0195 33.8129 35.5766 33.2715 35.0352L32.2871 34.0508H32.8777C33.1977 34.0508 33.7555 34.0918 34.1082 34.141ZM32.3117 35.9621L32.5742 36.2328L32.3855 36.7988C32.2215 37.2828 32.1559 37.373 31.9918 37.3977C31.8031 37.4223 31.7703 37.3648 31.598 36.8316L31.4094 36.2492L31.6801 35.9703C31.8277 35.8145 31.9754 35.6914 32 35.6914C32.0246 35.6914 32.1641 35.8145 32.3117 35.9621ZM32.2051 39.0711C32.2379 39.2188 32.5004 40.3918 32.7875 41.6715C33.0664 42.9594 33.2797 44.0504 33.2469 44.0914C33.0828 44.3785 32.0492 45.6992 32 45.6992C31.9508 45.6992 30.9172 44.3785 30.7531 44.0914C30.7203 44.0504 30.95 42.8691 31.2699 41.4664C31.5816 40.0719 31.8359 38.907 31.8359 38.866C31.8359 38.8332 31.9098 38.8086 31.9918 38.8086C32.1066 38.8086 32.1641 38.8906 32.2051 39.0711Z" fill="#33234B"/>
<path d="M27.9556 21.9102C26.9466 22.1645 26.0688 23.1324 25.954 24.1332L25.9048 24.5352H26.5692C27.2255 24.5352 27.2255 24.5352 27.2829 24.3055C27.5454 23.0832 29.0548 22.8207 29.7603 23.8707C29.8669 24.0266 29.9489 24.2398 29.9489 24.3383C29.9489 24.527 29.9653 24.5352 30.6544 24.5352H31.3599L31.3024 24.1824C31.163 23.2965 30.5478 22.468 29.7438 22.107C29.2517 21.8773 28.4396 21.7953 27.9556 21.9102Z" fill="#33234B"/>
<path d="M34.7643 21.9102C33.7061 22.1809 32.8693 23.0914 32.6971 24.1824L32.6396 24.5352H33.3451C34.0342 24.5352 34.0506 24.527 34.0506 24.3383C34.0506 24.084 34.3623 23.641 34.6986 23.4113C35.0596 23.1652 35.6994 23.157 36.085 23.3867C36.3721 23.5672 36.6428 23.9527 36.7166 24.3055C36.774 24.5352 36.774 24.5352 37.4303 24.5352H38.0947L38.0455 24.1332C37.9471 23.3047 37.2662 22.4188 36.4705 22.066C36.0439 21.8773 35.2072 21.8035 34.7643 21.9102Z" fill="#33234B"/>
<path d="M28.6367 28.1692C28.6367 28.8993 29.1043 29.8427 29.7523 30.4415C31.2781 31.8442 33.7309 31.4915 34.8629 29.7196C35.1336 29.2848 35.3633 28.5794 35.3633 28.1692V27.8985H34.7234H34.0754L33.977 28.3497C33.7719 29.2766 32.9352 29.9493 32 29.9493C31.0648 29.9493 30.2281 29.2766 30.023 28.3497L29.9246 27.8985H29.2766H28.6367V28.1692Z" fill="#33234B"/>
<path d="M12.8373 17.6198C12.0416 18.5632 11.5494 19.5147 11.2295 20.6878C10.9834 21.6147 10.967 23.2882 11.1967 24.2069C11.5166 25.4538 12.2303 26.8155 12.9193 27.4882L13.2146 27.7671L13.674 27.3159L14.1334 26.8565L13.7068 26.3315C13.1736 25.6589 12.7717 24.8468 12.5502 23.9608C12.3205 23.0503 12.3615 21.4999 12.6404 20.6796C12.9029 19.9085 13.3213 19.1456 13.7642 18.637L14.1416 18.2022L13.6494 17.7183L13.1654 17.2261L12.8373 17.6198Z" fill="#33234B"/>
<path d="M50.3419 17.7184L49.8579 18.2023L50.2435 18.6453C50.7274 19.1949 51.3099 20.3762 51.4739 21.1473C51.8759 22.9602 51.4165 24.9289 50.2927 26.3316L49.8661 26.8566L50.3337 27.316L50.7931 27.7754L51.2196 27.3078C51.7774 26.709 52.2778 25.823 52.5813 24.8961C53.4427 22.3203 52.8931 19.6051 51.0966 17.5379L50.8259 17.2262L50.3419 17.7184Z" fill="#33234B"/>
<path d="M14.6996 19.6297C14.5273 19.8676 14.2977 20.2203 14.2074 20.4172C13.9531 20.9258 13.707 21.9348 13.707 22.4762C13.7152 23.5262 14.1746 24.8059 14.8145 25.5605L15.0934 25.8887L15.5691 25.4129C15.9219 25.0684 16.0203 24.9207 15.9629 24.8387C15.2656 23.9035 15.0688 23.3293 15.118 22.3285C15.1426 21.7379 15.1918 21.5328 15.4133 21.0898C15.5527 20.7945 15.7496 20.4582 15.8563 20.327L16.0367 20.1055L15.5938 19.6543C15.3477 19.4082 15.118 19.2031 15.0852 19.2031C15.0523 19.2031 14.8801 19.4 14.6996 19.6297Z" fill="#33234B"/>
<path d="M48.4059 19.6543L47.9629 20.1055L48.1434 20.327C48.25 20.4583 48.4469 20.7946 48.5863 21.0899C48.8078 21.5329 48.857 21.7379 48.8816 22.3286C48.9309 23.3293 48.734 23.9036 48.0367 24.8387C47.9793 24.9125 48.0777 25.0684 48.4141 25.4047C48.6684 25.659 48.9227 25.8477 48.9637 25.8149C49.0129 25.7821 49.2426 25.4868 49.4641 25.1422C50.6043 23.4442 50.5387 21.2704 49.3 19.6297C49.1195 19.4 48.9473 19.2032 48.9145 19.2032C48.8816 19.2032 48.652 19.4083 48.4059 19.6543Z" fill="#33234B"/>
</g>
<defs>
<clipPath id="clip0_9358_170">
<rect width="42" height="42" fill="white" transform="translate(11 11)"/>
</clipPath>
</defs>
</svg>
