<svg width="96" height="96" viewBox="0 0 96 96" fill="none" xmlns="http://www.w3.org/2000/svg">
<g clip-path="url(#clip0_9056_5267)">
<path d="M74.6556 96H21.3503C15.6878 96 10.2573 93.7496 6.25336 89.7436C2.24941 85.7377 7.24411e-06 80.3045 7.24411e-06 74.6393V21.3549C-0.0023035 18.5483 0.548221 15.7687 1.62014 13.1751C2.69205 10.5815 4.26435 8.2246 6.24713 6.23921C8.22992 4.25382 10.5843 2.6788 13.1758 1.60422C15.7673 0.529646 18.545 -0.0234312 21.3503 -0.0234302H74.6205C77.4259 -0.0257434 80.2043 0.525293 82.7967 1.59817C85.3891 2.67105 87.7447 4.24473 89.7287 6.22918C91.7128 8.21364 93.2863 10.5699 94.3594 13.1633C95.4324 15.7567 95.984 18.5363 95.9824 21.3431L96.0176 74.6276C96.0192 77.4347 95.4676 80.2146 94.3946 82.8083C93.3216 85.402 91.7482 87.7587 89.7642 89.7436C87.7803 91.7286 85.4248 93.3028 82.8323 94.3763C80.2399 95.4498 77.4613 96.0016 74.6556 96Z" fill="#DEDEDE"/>
<path d="M73.5644 48.9076C73.436 46.1783 71.0852 44.0785 68.3528 44.0785H67.0137C68.553 43.126 69.5482 41.3787 69.412 39.4056C69.2265 36.7252 66.903 34.6917 64.2161 34.6917H60.5165C60.6692 36.494 60.0862 38.9657 58.7897 40.4183C58.2689 41.0019 57.6725 41.4453 57.0308 41.7619C56.8142 41.8688 56.8863 42.1912 57.1278 42.1912H58.4502C58.9984 42.1912 59.5285 42.4552 59.8123 42.9238C60.4271 43.9388 59.6627 45.1889 58.5318 45.1889H50.451C50.1621 45.1889 49.8793 45.2722 49.6368 45.4286L49.6347 45.43C48.521 46.1585 47.8314 47.399 47.8314 48.7658C47.8314 50.1323 48.521 51.3725 49.6347 52.1013L49.6354 52.1017C49.8892 52.2618 50.1829 52.3469 50.4831 52.3469H60.3782C61.3841 52.3469 62.1078 53.3377 61.8093 54.2848C61.605 54.9327 60.9653 55.3446 60.286 55.3446H50.4828C50.1829 55.3446 49.8888 55.4296 49.6351 55.5898L49.6344 55.5901C48.5206 56.3187 47.8311 57.5591 47.8311 58.9256C47.8311 60.2921 48.5206 61.5326 49.6344 62.2615L49.6351 62.2618C49.8636 62.4186 50.1344 62.5026 50.4114 62.5026H57.3003C58.1872 62.5026 58.9618 63.3277 58.7696 64.2998C58.6288 65.0109 57.9676 65.5003 57.2429 65.5003H50.4766C50.1901 65.5003 49.9059 65.5764 49.6644 65.7312C48.5329 66.4573 47.8311 67.7073 47.8311 69.0861C47.8311 70.9755 49.1836 72.6258 51.0306 72.9998H60.244C62.9309 72.9998 65.2544 70.9659 65.4395 68.2855C65.5758 66.3128 64.5805 64.5658 63.0419 63.6133H64.557C67.2439 63.6133 69.5674 61.5794 69.7525 58.899C69.8887 56.9263 68.8935 55.1793 67.3549 54.2267H68.4963C71.3799 54.2271 73.7017 51.8216 73.5644 48.9076Z" fill="#33234B"/>
<path d="M47.8711 39.1621C48.032 40.3162 48.6877 41.3336 49.6642 41.9607C49.905 42.1154 50.1888 42.1916 50.475 42.1916H51.3196C51.5662 42.1916 51.6349 41.8562 51.4084 41.7588C50.6171 41.4183 49.8667 40.9439 49.2014 40.3503L47.8711 39.1621Z" fill="#33234B"/>
<path d="M44.8333 38.6059C44.8333 37.9423 44.9323 37.3026 45.1055 36.6939L44.0204 35.7253C43.4931 35.2543 43.4118 34.4101 43.9139 33.8472C44.404 33.299 45.2445 33.2519 45.792 33.741L50.9732 38.3654C52.7222 39.9263 55.3384 39.7111 56.8354 38.0335C58.3603 36.3251 58.2114 33.6949 56.5034 32.1702L47.4157 24.0576C45.7561 22.576 43.238 22.6607 41.6826 24.2509L41.6433 24.2892C29.8066 35.4559 27.2197 38.2254 26.2709 39.4218C23.7886 42.5513 23 44.8697 23 48.2318V58.6437C23 66.5599 29.4401 73 37.3563 73C40.2539 73 43.1451 73 46.0342 73C45.28 71.8873 44.833 70.5109 44.833 69.0863C44.833 67.1197 45.6458 65.3 47.0174 64.0062C45.6458 62.7121 44.833 60.8924 44.833 58.9258C44.833 56.9592 45.6458 55.1395 47.0174 53.8457C45.6458 52.552 44.833 50.7323 44.833 48.7657C44.833 46.7991 45.6458 44.9794 47.0174 43.6856C45.6458 42.3915 44.8333 40.5721 44.8333 38.6059Z" fill="#33234B"/>
</g>
<defs>
<clipPath id="clip0_9056_5267">
<rect width="96" height="96" fill="white"/>
</clipPath>
</defs>
</svg>
